<?xml version="1.0" encoding="UTF-8"?>
<svg xmlns="http://www.w3.org/2000/svg" xmlns:xlink="http://www.w3.org/1999/xlink" width="83pt" height="86pt" viewBox="0 0 83 86" version="1.1">
<defs>
<clipPath id="clip1">
  <path d="M 0.851562 66 L 20 66 L 20 85.433594 L 0.851562 85.433594 Z M 0.851562 66 "/>
</clipPath>
<clipPath id="clip2">
  <path d="M 0.851562 49 L 20 49 L 20 70 L 0.851562 70 Z M 0.851562 49 "/>
</clipPath>
<clipPath id="clip3">
  <path d="M 0.851562 32 L 20 32 L 20 53 L 0.851562 53 Z M 0.851562 32 "/>
</clipPath>
<clipPath id="clip4">
  <path d="M 0.851562 15 L 20 15 L 20 36 L 0.851562 36 Z M 0.851562 15 "/>
</clipPath>
<clipPath id="clip5">
  <path d="M 0.851562 0 L 20 0 L 20 19 L 0.851562 19 Z M 0.851562 0 "/>
</clipPath>
<clipPath id="clip6">
  <path d="M 16 66 L 37 66 L 37 85.433594 L 16 85.433594 Z M 16 66 "/>
</clipPath>
<clipPath id="clip7">
  <path d="M 33 66 L 54 66 L 54 85.433594 L 33 85.433594 Z M 33 66 "/>
</clipPath>
<clipPath id="clip8">
  <path d="M 50 66 L 71 66 L 71 85.433594 L 50 85.433594 Z M 50 66 "/>
</clipPath>
<clipPath id="clip9">
  <path d="M 67 66 L 82.039062 66 L 82.039062 85.433594 L 67 85.433594 Z M 67 66 "/>
</clipPath>
<clipPath id="clip10">
  <path d="M 67 49 L 82.039062 49 L 82.039062 70 L 67 70 Z M 67 49 "/>
</clipPath>
<clipPath id="clip11">
  <path d="M 67 32 L 82.039062 32 L 82.039062 53 L 67 53 Z M 67 32 "/>
</clipPath>
<clipPath id="clip12">
  <path d="M 67 15 L 82.039062 15 L 82.039062 36 L 67 36 Z M 67 15 "/>
</clipPath>
<clipPath id="clip13">
  <path d="M 67 0 L 82.039062 0 L 82.039062 19 L 67 19 Z M 67 0 "/>
</clipPath>
<clipPath id="clip14">
  <path d="M 0.851562 0 L 58 0 L 58 85.433594 L 0.851562 85.433594 Z M 0.851562 0 "/>
</clipPath>
</defs>
<g id="surface81">
<path style="fill:none;stroke-width:0.3985;stroke-linecap:butt;stroke-linejoin:miter;stroke:rgb(0%,0%,0%);stroke-opacity:1;stroke-miterlimit:10;" d="M 0.0006875 0.00153125 L 68.031937 0.00153125 M 0.0006875 0.00153125 L 0.0006875 68.032781 " transform="matrix(1,0,0,-1,9.554,76.732)"/>
<path style="fill:none;stroke-width:0.3985;stroke-linecap:butt;stroke-linejoin:miter;stroke:rgb(0%,0%,0%);stroke-opacity:1;stroke-miterlimit:10;" d="M 0.0006875 17.009344 L 68.031937 17.009344 M 17.0085 0.00153125 L 17.0085 68.032781 " transform="matrix(1,0,0,-1,9.554,76.732)"/>
<path style="fill:none;stroke-width:0.3985;stroke-linecap:butt;stroke-linejoin:miter;stroke:rgb(0%,0%,0%);stroke-opacity:1;stroke-miterlimit:10;" d="M 0.0006875 34.017156 L 68.031937 34.017156 M 34.016312 0.00153125 L 34.016312 68.032781 " transform="matrix(1,0,0,-1,9.554,76.732)"/>
<path style="fill:none;stroke-width:0.3985;stroke-linecap:butt;stroke-linejoin:miter;stroke:rgb(0%,0%,0%);stroke-opacity:1;stroke-miterlimit:10;" d="M 0.0006875 51.024969 L 68.031937 51.024969 M 51.024125 0.00153125 L 51.024125 68.032781 " transform="matrix(1,0,0,-1,9.554,76.732)"/>
<path style="fill:none;stroke-width:0.3985;stroke-linecap:butt;stroke-linejoin:miter;stroke:rgb(0%,0%,0%);stroke-opacity:1;stroke-miterlimit:10;" d="M 0.0006875 68.032781 L 68.031937 68.032781 M 68.031937 0.00153125 L 68.031937 68.032781 " transform="matrix(1,0,0,-1,9.554,76.732)"/>
<path style="fill:none;stroke-width:2.83484;stroke-linecap:butt;stroke-linejoin:miter;stroke:rgb(100%,0%,0%);stroke-opacity:1;stroke-miterlimit:10;" d="M 34.016312 0.00153125 L 51.024125 0.00153125 M 34.016312 17.009344 L 51.024125 17.009344 M 34.016312 17.009344 L 34.016312 34.017156 M 17.0085 34.017156 L 34.016312 34.017156 M 17.0085 51.024969 L 34.016312 51.024969 M 17.0085 51.024969 L 17.0085 68.032781 M 0.0006875 68.032781 L 17.0085 68.032781 " transform="matrix(1,0,0,-1,9.554,76.732)"/>
<path style=" stroke:none;fill-rule:nonzero;fill:rgb(79.998779%,79.998779%,100%);fill-opacity:1;" d="M 13.804688 76.730469 C 13.804688 74.382812 11.902344 72.480469 9.554688 72.480469 C 7.207031 72.480469 5.300781 74.382812 5.300781 76.730469 C 5.300781 79.082031 7.207031 80.984375 9.554688 80.984375 C 11.902344 80.984375 13.804688 79.082031 13.804688 76.730469 Z M 13.804688 76.730469 "/>
<g clip-path="url(#clip1)" clip-rule="nonzero">
<path style="fill:none;stroke-width:0.3985;stroke-linecap:butt;stroke-linejoin:miter;stroke:rgb(0%,0%,0%);stroke-opacity:1;stroke-miterlimit:10;" d="M 4.250687 0.00153125 C 4.250687 2.349187 2.348344 4.251531 0.0006875 4.251531 C -2.346969 4.251531 -4.253219 2.349187 -4.253219 0.00153125 C -4.253219 -2.350031 -2.346969 -4.252375 0.0006875 -4.252375 C 2.348344 -4.252375 4.250687 -2.350031 4.250687 0.00153125 Z M 4.250687 0.00153125 " transform="matrix(1,0,0,-1,9.554,76.732)"/>
</g>
<path style=" stroke:none;fill-rule:nonzero;fill:rgb(79.998779%,79.998779%,100%);fill-opacity:1;" d="M 13.804688 59.722656 C 13.804688 57.375 11.902344 55.472656 9.554688 55.472656 C 7.207031 55.472656 5.300781 57.375 5.300781 59.722656 C 5.300781 62.070312 7.207031 63.976562 9.554688 63.976562 C 11.902344 63.976562 13.804688 62.070312 13.804688 59.722656 Z M 13.804688 59.722656 "/>
<g clip-path="url(#clip2)" clip-rule="nonzero">
<path style="fill:none;stroke-width:0.3985;stroke-linecap:butt;stroke-linejoin:miter;stroke:rgb(0%,0%,0%);stroke-opacity:1;stroke-miterlimit:10;" d="M 4.250687 17.009344 C 4.250687 19.357 2.348344 21.259344 0.0006875 21.259344 C -2.346969 21.259344 -4.253219 19.357 -4.253219 17.009344 C -4.253219 14.661687 -2.346969 12.755437 0.0006875 12.755437 C 2.348344 12.755437 4.250687 14.661687 4.250687 17.009344 Z M 4.250687 17.009344 " transform="matrix(1,0,0,-1,9.554,76.732)"/>
</g>
<path style=" stroke:none;fill-rule:nonzero;fill:rgb(79.998779%,79.998779%,100%);fill-opacity:1;" d="M 13.804688 42.714844 C 13.804688 40.367188 11.902344 38.464844 9.554688 38.464844 C 7.207031 38.464844 5.300781 40.367188 5.300781 42.714844 C 5.300781 45.0625 7.207031 46.96875 9.554688 46.96875 C 11.902344 46.96875 13.804688 45.0625 13.804688 42.714844 Z M 13.804688 42.714844 "/>
<g clip-path="url(#clip3)" clip-rule="nonzero">
<path style="fill:none;stroke-width:0.3985;stroke-linecap:butt;stroke-linejoin:miter;stroke:rgb(0%,0%,0%);stroke-opacity:1;stroke-miterlimit:10;" d="M 4.250687 34.017156 C 4.250687 36.364812 2.348344 38.267156 0.0006875 38.267156 C -2.346969 38.267156 -4.253219 36.364812 -4.253219 34.017156 C -4.253219 31.6695 -2.346969 29.76325 0.0006875 29.76325 C 2.348344 29.76325 4.250687 31.6695 4.250687 34.017156 Z M 4.250687 34.017156 " transform="matrix(1,0,0,-1,9.554,76.732)"/>
</g>
<path style=" stroke:none;fill-rule:nonzero;fill:rgb(79.998779%,79.998779%,100%);fill-opacity:1;" d="M 13.804688 25.707031 C 13.804688 23.359375 11.902344 21.457031 9.554688 21.457031 C 7.207031 21.457031 5.300781 23.359375 5.300781 25.707031 C 5.300781 28.054688 7.207031 29.960938 9.554688 29.960938 C 11.902344 29.960938 13.804688 28.054688 13.804688 25.707031 Z M 13.804688 25.707031 "/>
<g clip-path="url(#clip4)" clip-rule="nonzero">
<path style="fill:none;stroke-width:0.3985;stroke-linecap:butt;stroke-linejoin:miter;stroke:rgb(0%,0%,0%);stroke-opacity:1;stroke-miterlimit:10;" d="M 4.250687 51.024969 C 4.250687 53.372625 2.348344 55.274969 0.0006875 55.274969 C -2.346969 55.274969 -4.253219 53.372625 -4.253219 51.024969 C -4.253219 48.677312 -2.346969 46.771062 0.0006875 46.771062 C 2.348344 46.771062 4.250687 48.677312 4.250687 51.024969 Z M 4.250687 51.024969 " transform="matrix(1,0,0,-1,9.554,76.732)"/>
</g>
<path style=" stroke:none;fill-rule:nonzero;fill:rgb(79.998779%,79.998779%,100%);fill-opacity:1;" d="M 13.804688 8.699219 C 13.804688 6.351562 11.902344 4.445312 9.554688 4.445312 C 7.207031 4.445312 5.300781 6.351562 5.300781 8.699219 C 5.300781 11.046875 7.207031 12.949219 9.554688 12.949219 C 11.902344 12.949219 13.804688 11.046875 13.804688 8.699219 Z M 13.804688 8.699219 "/>
<g clip-path="url(#clip5)" clip-rule="nonzero">
<path style="fill:none;stroke-width:0.3985;stroke-linecap:butt;stroke-linejoin:miter;stroke:rgb(0%,0%,0%);stroke-opacity:1;stroke-miterlimit:10;" d="M 4.250687 68.032781 C 4.250687 70.380437 2.348344 72.286687 0.0006875 72.286687 C -2.346969 72.286687 -4.253219 70.380437 -4.253219 68.032781 C -4.253219 65.685125 -2.346969 63.782781 0.0006875 63.782781 C 2.348344 63.782781 4.250687 65.685125 4.250687 68.032781 Z M 4.250687 68.032781 " transform="matrix(1,0,0,-1,9.554,76.732)"/>
</g>
<path style=" stroke:none;fill-rule:nonzero;fill:rgb(79.998779%,79.998779%,100%);fill-opacity:1;" d="M 30.8125 76.730469 C 30.8125 74.382812 28.910156 72.480469 26.5625 72.480469 C 24.214844 72.480469 22.308594 74.382812 22.308594 76.730469 C 22.308594 79.082031 24.214844 80.984375 26.5625 80.984375 C 28.910156 80.984375 30.8125 79.082031 30.8125 76.730469 Z M 30.8125 76.730469 "/>
<g clip-path="url(#clip6)" clip-rule="nonzero">
<path style="fill:none;stroke-width:0.3985;stroke-linecap:butt;stroke-linejoin:miter;stroke:rgb(0%,0%,0%);stroke-opacity:1;stroke-miterlimit:10;" d="M 21.2585 0.00153125 C 21.2585 2.349187 19.356156 4.251531 17.0085 4.251531 C 14.660844 4.251531 12.754594 2.349187 12.754594 0.00153125 C 12.754594 -2.350031 14.660844 -4.252375 17.0085 -4.252375 C 19.356156 -4.252375 21.2585 -2.350031 21.2585 0.00153125 Z M 21.2585 0.00153125 " transform="matrix(1,0,0,-1,9.554,76.732)"/>
</g>
<path style="fill-rule:nonzero;fill:rgb(79.998779%,79.998779%,100%);fill-opacity:1;stroke-width:0.3985;stroke-linecap:butt;stroke-linejoin:miter;stroke:rgb(0%,0%,0%);stroke-opacity:1;stroke-miterlimit:10;" d="M 21.2585 17.009344 C 21.2585 19.357 19.356156 21.259344 17.0085 21.259344 C 14.660844 21.259344 12.754594 19.357 12.754594 17.009344 C 12.754594 14.661687 14.660844 12.755437 17.0085 12.755437 C 19.356156 12.755437 21.2585 14.661687 21.2585 17.009344 Z M 21.2585 17.009344 " transform="matrix(1,0,0,-1,9.554,76.732)"/>
<path style="fill-rule:nonzero;fill:rgb(79.998779%,79.998779%,100%);fill-opacity:1;stroke-width:0.3985;stroke-linecap:butt;stroke-linejoin:miter;stroke:rgb(0%,0%,0%);stroke-opacity:1;stroke-miterlimit:10;" d="M 21.2585 34.017156 C 21.2585 36.364812 19.356156 38.267156 17.0085 38.267156 C 14.660844 38.267156 12.754594 36.364812 12.754594 34.017156 C 12.754594 31.6695 14.660844 29.76325 17.0085 29.76325 C 19.356156 29.76325 21.2585 31.6695 21.2585 34.017156 Z M 21.2585 34.017156 " transform="matrix(1,0,0,-1,9.554,76.732)"/>
<path style="fill-rule:nonzero;fill:rgb(79.998779%,79.998779%,100%);fill-opacity:1;stroke-width:0.3985;stroke-linecap:butt;stroke-linejoin:miter;stroke:rgb(0%,0%,0%);stroke-opacity:1;stroke-miterlimit:10;" d="M 21.2585 51.024969 C 21.2585 53.372625 19.356156 55.274969 17.0085 55.274969 C 14.660844 55.274969 12.754594 53.372625 12.754594 51.024969 C 12.754594 48.677312 14.660844 46.771062 17.0085 46.771062 C 19.356156 46.771062 21.2585 48.677312 21.2585 51.024969 Z M 21.2585 51.024969 " transform="matrix(1,0,0,-1,9.554,76.732)"/>
<path style="fill-rule:nonzero;fill:rgb(79.998779%,79.998779%,100%);fill-opacity:1;stroke-width:0.3985;stroke-linecap:butt;stroke-linejoin:miter;stroke:rgb(0%,0%,0%);stroke-opacity:1;stroke-miterlimit:10;" d="M 21.2585 68.032781 C 21.2585 70.380437 19.356156 72.286687 17.0085 72.286687 C 14.660844 72.286687 12.754594 70.380437 12.754594 68.032781 C 12.754594 65.685125 14.660844 63.782781 17.0085 63.782781 C 19.356156 63.782781 21.2585 65.685125 21.2585 68.032781 Z M 21.2585 68.032781 " transform="matrix(1,0,0,-1,9.554,76.732)"/>
<path style=" stroke:none;fill-rule:nonzero;fill:rgb(79.998779%,79.998779%,100%);fill-opacity:1;" d="M 47.824219 76.730469 C 47.824219 74.382812 45.917969 72.480469 43.570312 72.480469 C 41.222656 72.480469 39.320312 74.382812 39.320312 76.730469 C 39.320312 79.082031 41.222656 80.984375 43.570312 80.984375 C 45.917969 80.984375 47.824219 79.082031 47.824219 76.730469 Z M 47.824219 76.730469 "/>
<g clip-path="url(#clip7)" clip-rule="nonzero">
<path style="fill:none;stroke-width:0.3985;stroke-linecap:butt;stroke-linejoin:miter;stroke:rgb(0%,0%,0%);stroke-opacity:1;stroke-miterlimit:10;" d="M 38.270219 0.00153125 C 38.270219 2.349187 36.363969 4.251531 34.016312 4.251531 C 31.668656 4.251531 29.766312 2.349187 29.766312 0.00153125 C 29.766312 -2.350031 31.668656 -4.252375 34.016312 -4.252375 C 36.363969 -4.252375 38.270219 -2.350031 38.270219 0.00153125 Z M 38.270219 0.00153125 " transform="matrix(1,0,0,-1,9.554,76.732)"/>
</g>
<path style="fill-rule:nonzero;fill:rgb(79.998779%,79.998779%,100%);fill-opacity:1;stroke-width:0.3985;stroke-linecap:butt;stroke-linejoin:miter;stroke:rgb(0%,0%,0%);stroke-opacity:1;stroke-miterlimit:10;" d="M 38.270219 17.009344 C 38.270219 19.357 36.363969 21.259344 34.016312 21.259344 C 31.668656 21.259344 29.766312 19.357 29.766312 17.009344 C 29.766312 14.661687 31.668656 12.755437 34.016312 12.755437 C 36.363969 12.755437 38.270219 14.661687 38.270219 17.009344 Z M 38.270219 17.009344 " transform="matrix(1,0,0,-1,9.554,76.732)"/>
<path style="fill-rule:nonzero;fill:rgb(79.998779%,79.998779%,100%);fill-opacity:1;stroke-width:0.3985;stroke-linecap:butt;stroke-linejoin:miter;stroke:rgb(0%,0%,0%);stroke-opacity:1;stroke-miterlimit:10;" d="M 38.270219 34.017156 C 38.270219 36.364812 36.363969 38.267156 34.016312 38.267156 C 31.668656 38.267156 29.766312 36.364812 29.766312 34.017156 C 29.766312 31.6695 31.668656 29.76325 34.016312 29.76325 C 36.363969 29.76325 38.270219 31.6695 38.270219 34.017156 Z M 38.270219 34.017156 " transform="matrix(1,0,0,-1,9.554,76.732)"/>
<path style="fill-rule:nonzero;fill:rgb(79.998779%,79.998779%,100%);fill-opacity:1;stroke-width:0.3985;stroke-linecap:butt;stroke-linejoin:miter;stroke:rgb(0%,0%,0%);stroke-opacity:1;stroke-miterlimit:10;" d="M 38.270219 51.024969 C 38.270219 53.372625 36.363969 55.274969 34.016312 55.274969 C 31.668656 55.274969 29.766312 53.372625 29.766312 51.024969 C 29.766312 48.677312 31.668656 46.771062 34.016312 46.771062 C 36.363969 46.771062 38.270219 48.677312 38.270219 51.024969 Z M 38.270219 51.024969 " transform="matrix(1,0,0,-1,9.554,76.732)"/>
<path style="fill-rule:nonzero;fill:rgb(79.998779%,79.998779%,100%);fill-opacity:1;stroke-width:0.3985;stroke-linecap:butt;stroke-linejoin:miter;stroke:rgb(0%,0%,0%);stroke-opacity:1;stroke-miterlimit:10;" d="M 38.270219 68.032781 C 38.270219 70.380437 36.363969 72.286687 34.016312 72.286687 C 31.668656 72.286687 29.766312 70.380437 29.766312 68.032781 C 29.766312 65.685125 31.668656 63.782781 34.016312 63.782781 C 36.363969 63.782781 38.270219 65.685125 38.270219 68.032781 Z M 38.270219 68.032781 " transform="matrix(1,0,0,-1,9.554,76.732)"/>
<path style=" stroke:none;fill-rule:nonzero;fill:rgb(79.998779%,79.998779%,100%);fill-opacity:1;" d="M 64.832031 76.730469 C 64.832031 74.382812 62.925781 72.480469 60.578125 72.480469 C 58.230469 72.480469 56.328125 74.382812 56.328125 76.730469 C 56.328125 79.082031 58.230469 80.984375 60.578125 80.984375 C 62.925781 80.984375 64.832031 79.082031 64.832031 76.730469 Z M 64.832031 76.730469 "/>
<g clip-path="url(#clip8)" clip-rule="nonzero">
<path style="fill:none;stroke-width:0.3985;stroke-linecap:butt;stroke-linejoin:miter;stroke:rgb(0%,0%,0%);stroke-opacity:1;stroke-miterlimit:10;" d="M 55.278031 0.00153125 C 55.278031 2.349187 53.371781 4.251531 51.024125 4.251531 C 48.676469 4.251531 46.774125 2.349187 46.774125 0.00153125 C 46.774125 -2.350031 48.676469 -4.252375 51.024125 -4.252375 C 53.371781 -4.252375 55.278031 -2.350031 55.278031 0.00153125 Z M 55.278031 0.00153125 " transform="matrix(1,0,0,-1,9.554,76.732)"/>
</g>
<path style="fill-rule:nonzero;fill:rgb(79.998779%,79.998779%,100%);fill-opacity:1;stroke-width:0.3985;stroke-linecap:butt;stroke-linejoin:miter;stroke:rgb(0%,0%,0%);stroke-opacity:1;stroke-miterlimit:10;" d="M 55.278031 17.009344 C 55.278031 19.357 53.371781 21.259344 51.024125 21.259344 C 48.676469 21.259344 46.774125 19.357 46.774125 17.009344 C 46.774125 14.661687 48.676469 12.755437 51.024125 12.755437 C 53.371781 12.755437 55.278031 14.661687 55.278031 17.009344 Z M 55.278031 17.009344 " transform="matrix(1,0,0,-1,9.554,76.732)"/>
<path style="fill-rule:nonzero;fill:rgb(79.998779%,79.998779%,100%);fill-opacity:1;stroke-width:0.3985;stroke-linecap:butt;stroke-linejoin:miter;stroke:rgb(0%,0%,0%);stroke-opacity:1;stroke-miterlimit:10;" d="M 55.278031 34.017156 C 55.278031 36.364812 53.371781 38.267156 51.024125 38.267156 C 48.676469 38.267156 46.774125 36.364812 46.774125 34.017156 C 46.774125 31.6695 48.676469 29.76325 51.024125 29.76325 C 53.371781 29.76325 55.278031 31.6695 55.278031 34.017156 Z M 55.278031 34.017156 " transform="matrix(1,0,0,-1,9.554,76.732)"/>
<path style="fill-rule:nonzero;fill:rgb(79.998779%,79.998779%,100%);fill-opacity:1;stroke-width:0.3985;stroke-linecap:butt;stroke-linejoin:miter;stroke:rgb(0%,0%,0%);stroke-opacity:1;stroke-miterlimit:10;" d="M 55.278031 51.024969 C 55.278031 53.372625 53.371781 55.274969 51.024125 55.274969 C 48.676469 55.274969 46.774125 53.372625 46.774125 51.024969 C 46.774125 48.677312 48.676469 46.771062 51.024125 46.771062 C 53.371781 46.771062 55.278031 48.677312 55.278031 51.024969 Z M 55.278031 51.024969 " transform="matrix(1,0,0,-1,9.554,76.732)"/>
<path style="fill-rule:nonzero;fill:rgb(79.998779%,79.998779%,100%);fill-opacity:1;stroke-width:0.3985;stroke-linecap:butt;stroke-linejoin:miter;stroke:rgb(0%,0%,0%);stroke-opacity:1;stroke-miterlimit:10;" d="M 55.278031 68.032781 C 55.278031 70.380437 53.371781 72.286687 51.024125 72.286687 C 48.676469 72.286687 46.774125 70.380437 46.774125 68.032781 C 46.774125 65.685125 48.676469 63.782781 51.024125 63.782781 C 53.371781 63.782781 55.278031 65.685125 55.278031 68.032781 Z M 55.278031 68.032781 " transform="matrix(1,0,0,-1,9.554,76.732)"/>
<path style=" stroke:none;fill-rule:nonzero;fill:rgb(79.998779%,79.998779%,100%);fill-opacity:1;" d="M 81.839844 76.730469 C 81.839844 74.382812 79.933594 72.480469 77.585938 72.480469 C 75.238281 72.480469 73.335938 74.382812 73.335938 76.730469 C 73.335938 79.082031 75.238281 80.984375 77.585938 80.984375 C 79.933594 80.984375 81.839844 79.082031 81.839844 76.730469 Z M 81.839844 76.730469 "/>
<g clip-path="url(#clip9)" clip-rule="nonzero">
<path style="fill:none;stroke-width:0.3985;stroke-linecap:butt;stroke-linejoin:miter;stroke:rgb(0%,0%,0%);stroke-opacity:1;stroke-miterlimit:10;" d="M 72.285844 0.00153125 C 72.285844 2.349187 70.379594 4.251531 68.031937 4.251531 C 65.684281 4.251531 63.781937 2.349187 63.781937 0.00153125 C 63.781937 -2.350031 65.684281 -4.252375 68.031937 -4.252375 C 70.379594 -4.252375 72.285844 -2.350031 72.285844 0.00153125 Z M 72.285844 0.00153125 " transform="matrix(1,0,0,-1,9.554,76.732)"/>
</g>
<path style=" stroke:none;fill-rule:nonzero;fill:rgb(79.998779%,79.998779%,100%);fill-opacity:1;" d="M 81.839844 59.722656 C 81.839844 57.375 79.933594 55.472656 77.585938 55.472656 C 75.238281 55.472656 73.335938 57.375 73.335938 59.722656 C 73.335938 62.070312 75.238281 63.976562 77.585938 63.976562 C 79.933594 63.976562 81.839844 62.070312 81.839844 59.722656 Z M 81.839844 59.722656 "/>
<g clip-path="url(#clip10)" clip-rule="nonzero">
<path style="fill:none;stroke-width:0.3985;stroke-linecap:butt;stroke-linejoin:miter;stroke:rgb(0%,0%,0%);stroke-opacity:1;stroke-miterlimit:10;" d="M 72.285844 17.009344 C 72.285844 19.357 70.379594 21.259344 68.031937 21.259344 C 65.684281 21.259344 63.781937 19.357 63.781937 17.009344 C 63.781937 14.661687 65.684281 12.755437 68.031937 12.755437 C 70.379594 12.755437 72.285844 14.661687 72.285844 17.009344 Z M 72.285844 17.009344 " transform="matrix(1,0,0,-1,9.554,76.732)"/>
</g>
<path style=" stroke:none;fill-rule:nonzero;fill:rgb(79.998779%,79.998779%,100%);fill-opacity:1;" d="M 81.839844 42.714844 C 81.839844 40.367188 79.933594 38.464844 77.585938 38.464844 C 75.238281 38.464844 73.335938 40.367188 73.335938 42.714844 C 73.335938 45.0625 75.238281 46.96875 77.585938 46.96875 C 79.933594 46.96875 81.839844 45.0625 81.839844 42.714844 Z M 81.839844 42.714844 "/>
<g clip-path="url(#clip11)" clip-rule="nonzero">
<path style="fill:none;stroke-width:0.3985;stroke-linecap:butt;stroke-linejoin:miter;stroke:rgb(0%,0%,0%);stroke-opacity:1;stroke-miterlimit:10;" d="M 72.285844 34.017156 C 72.285844 36.364812 70.379594 38.267156 68.031937 38.267156 C 65.684281 38.267156 63.781937 36.364812 63.781937 34.017156 C 63.781937 31.6695 65.684281 29.76325 68.031937 29.76325 C 70.379594 29.76325 72.285844 31.6695 72.285844 34.017156 Z M 72.285844 34.017156 " transform="matrix(1,0,0,-1,9.554,76.732)"/>
</g>
<path style=" stroke:none;fill-rule:nonzero;fill:rgb(79.998779%,79.998779%,100%);fill-opacity:1;" d="M 81.839844 25.707031 C 81.839844 23.359375 79.933594 21.457031 77.585938 21.457031 C 75.238281 21.457031 73.335938 23.359375 73.335938 25.707031 C 73.335938 28.054688 75.238281 29.960938 77.585938 29.960938 C 79.933594 29.960938 81.839844 28.054688 81.839844 25.707031 Z M 81.839844 25.707031 "/>
<g clip-path="url(#clip12)" clip-rule="nonzero">
<path style="fill:none;stroke-width:0.3985;stroke-linecap:butt;stroke-linejoin:miter;stroke:rgb(0%,0%,0%);stroke-opacity:1;stroke-miterlimit:10;" d="M 72.285844 51.024969 C 72.285844 53.372625 70.379594 55.274969 68.031937 55.274969 C 65.684281 55.274969 63.781937 53.372625 63.781937 51.024969 C 63.781937 48.677312 65.684281 46.771062 68.031937 46.771062 C 70.379594 46.771062 72.285844 48.677312 72.285844 51.024969 Z M 72.285844 51.024969 " transform="matrix(1,0,0,-1,9.554,76.732)"/>
</g>
<path style=" stroke:none;fill-rule:nonzero;fill:rgb(79.998779%,79.998779%,100%);fill-opacity:1;" d="M 81.839844 8.699219 C 81.839844 6.351562 79.933594 4.445312 77.585938 4.445312 C 75.238281 4.445312 73.335938 6.351562 73.335938 8.699219 C 73.335938 11.046875 75.238281 12.949219 77.585938 12.949219 C 79.933594 12.949219 81.839844 11.046875 81.839844 8.699219 Z M 81.839844 8.699219 "/>
<g clip-path="url(#clip13)" clip-rule="nonzero">
<path style="fill:none;stroke-width:0.3985;stroke-linecap:butt;stroke-linejoin:miter;stroke:rgb(0%,0%,0%);stroke-opacity:1;stroke-miterlimit:10;" d="M 72.285844 68.032781 C 72.285844 70.380437 70.379594 72.286687 68.031937 72.286687 C 65.684281 72.286687 63.781937 70.380437 63.781937 68.032781 C 63.781937 65.685125 65.684281 63.782781 68.031937 63.782781 C 70.379594 63.782781 72.285844 65.685125 72.285844 68.032781 Z M 72.285844 68.032781 " transform="matrix(1,0,0,-1,9.554,76.732)"/>
</g>
<g clip-path="url(#clip14)" clip-rule="nonzero">
<path style="fill:none;stroke-width:0.3985;stroke-linecap:butt;stroke-linejoin:miter;stroke:rgb(0%,0%,0%);stroke-opacity:1;stroke-dasharray:2.98883,2.98883;stroke-miterlimit:10;" d="M 0.0006875 -8.502375 L 34.016312 -8.502375 C 38.711625 -8.502375 42.520219 -4.697688 42.520219 0.00153125 L 42.520219 17.009344 C 42.520219 21.704656 38.711625 25.51325 34.016312 25.51325 C 29.321 25.51325 25.512406 29.317937 25.512406 34.017156 L 25.512406 51.024969 C 25.512406 55.720281 21.703812 59.528875 17.0085 59.528875 C 12.313187 59.528875 8.504594 63.337469 8.504594 68.032781 C 8.504594 72.728094 4.696 76.536687 0.0006875 76.536687 C -4.698531 76.536687 -8.503219 72.728094 -8.503219 68.032781 L -8.503219 0.00153125 C -8.503219 -4.697688 -4.698531 -8.502375 0.0006875 -8.502375 Z M 0.0006875 -8.502375 " transform="matrix(1,0,0,-1,9.554,76.732)"/>
</g>
</g>
</svg>
