<?xml version="1.0" encoding="utf-8"?>
<svg xmlns="http://www.w3.org/2000/svg" xmlns:xlink="http://www.w3.org/1999/xlink" width="600" height="400" viewBox="0 0 2400 1600">
<defs>
  <clipPath id="clip390">
    <rect x="0" y="0" width="2400" height="1600"/>
  </clipPath>
</defs>
<path clip-path="url(#clip390)" d="M0 1600 L2400 1600 L2400 0 L0 0  Z" fill="#ffffff" fill-rule="evenodd" fill-opacity="1"/>
<defs>
  <clipPath id="clip391">
    <rect x="480" y="0" width="1681" height="1600"/>
  </clipPath>
</defs>
<path clip-path="url(#clip390)" d="M317.528 1423.18 L2352.76 1423.18 L2352.76 47.2441 L317.528 47.2441  Z" fill="#ffffff" fill-rule="evenodd" fill-opacity="1"/>
<defs>
  <clipPath id="clip392">
    <rect x="317" y="47" width="2036" height="1377"/>
  </clipPath>
</defs>
<polyline clip-path="url(#clip392)" style="stroke:#000000; stroke-linecap:round; stroke-linejoin:round; stroke-width:2; stroke-opacity:0.1; fill:none" points="365.023,1423.18 365.023,47.2441 "/>
<polyline clip-path="url(#clip392)" style="stroke:#000000; stroke-linecap:round; stroke-linejoin:round; stroke-width:2; stroke-opacity:0.1; fill:none" points="870.293,1423.18 870.293,47.2441 "/>
<polyline clip-path="url(#clip392)" style="stroke:#000000; stroke-linecap:round; stroke-linejoin:round; stroke-width:2; stroke-opacity:0.1; fill:none" points="1375.56,1423.18 1375.56,47.2441 "/>
<polyline clip-path="url(#clip392)" style="stroke:#000000; stroke-linecap:round; stroke-linejoin:round; stroke-width:2; stroke-opacity:0.1; fill:none" points="1880.83,1423.18 1880.83,47.2441 "/>
<polyline clip-path="url(#clip390)" style="stroke:#000000; stroke-linecap:round; stroke-linejoin:round; stroke-width:4; stroke-opacity:1; fill:none" points="317.528,1423.18 2352.76,1423.18 "/>
<polyline clip-path="url(#clip390)" style="stroke:#000000; stroke-linecap:round; stroke-linejoin:round; stroke-width:4; stroke-opacity:1; fill:none" points="365.023,1423.18 365.023,1404.28 "/>
<polyline clip-path="url(#clip390)" style="stroke:#000000; stroke-linecap:round; stroke-linejoin:round; stroke-width:4; stroke-opacity:1; fill:none" points="870.293,1423.18 870.293,1404.28 "/>
<polyline clip-path="url(#clip390)" style="stroke:#000000; stroke-linecap:round; stroke-linejoin:round; stroke-width:4; stroke-opacity:1; fill:none" points="1375.56,1423.18 1375.56,1404.28 "/>
<polyline clip-path="url(#clip390)" style="stroke:#000000; stroke-linecap:round; stroke-linejoin:round; stroke-width:4; stroke-opacity:1; fill:none" points="1880.83,1423.18 1880.83,1404.28 "/>
<path clip-path="url(#clip390)" d="M365.023 1454.1 Q361.412 1454.1 359.583 1457.66 Q357.778 1461.2 357.778 1468.33 Q357.778 1475.44 359.583 1479.01 Q361.412 1482.55 365.023 1482.55 Q368.657 1482.55 370.463 1479.01 Q372.292 1475.44 372.292 1468.33 Q372.292 1461.2 370.463 1457.66 Q368.657 1454.1 365.023 1454.1 M365.023 1450.39 Q370.833 1450.39 373.889 1455 Q376.968 1459.58 376.968 1468.33 Q376.968 1477.06 373.889 1481.67 Q370.833 1486.25 365.023 1486.25 Q359.213 1486.25 356.134 1481.67 Q353.079 1477.06 353.079 1468.33 Q353.079 1459.58 356.134 1455 Q359.213 1450.39 365.023 1450.39 Z" fill="#000000" fill-rule="nonzero" fill-opacity="1" /><path clip-path="url(#clip390)" d="M860.571 1451.02 L878.928 1451.02 L878.928 1454.96 L864.854 1454.96 L864.854 1463.43 Q865.872 1463.08 866.891 1462.92 Q867.909 1462.73 868.928 1462.73 Q874.715 1462.73 878.094 1465.9 Q881.474 1469.08 881.474 1474.49 Q881.474 1480.07 878.002 1483.17 Q874.529 1486.25 868.21 1486.25 Q866.034 1486.25 863.766 1485.88 Q861.52 1485.51 859.113 1484.77 L859.113 1480.07 Q861.196 1481.2 863.418 1481.76 Q865.641 1482.32 868.117 1482.32 Q872.122 1482.32 874.46 1480.21 Q876.798 1478.1 876.798 1474.49 Q876.798 1470.88 874.46 1468.77 Q872.122 1466.67 868.117 1466.67 Q866.242 1466.67 864.367 1467.08 Q862.516 1467.5 860.571 1468.38 L860.571 1451.02 Z" fill="#000000" fill-rule="nonzero" fill-opacity="1" /><path clip-path="url(#clip390)" d="M1350.25 1481.64 L1357.89 1481.64 L1357.89 1455.28 L1349.58 1456.95 L1349.58 1452.69 L1357.84 1451.02 L1362.52 1451.02 L1362.52 1481.64 L1370.16 1481.64 L1370.16 1485.58 L1350.25 1485.58 L1350.25 1481.64 Z" fill="#000000" fill-rule="nonzero" fill-opacity="1" /><path clip-path="url(#clip390)" d="M1389.6 1454.1 Q1385.99 1454.1 1384.16 1457.66 Q1382.36 1461.2 1382.36 1468.33 Q1382.36 1475.44 1384.16 1479.01 Q1385.99 1482.55 1389.6 1482.55 Q1393.24 1482.55 1395.04 1479.01 Q1396.87 1475.44 1396.87 1468.33 Q1396.87 1461.2 1395.04 1457.66 Q1393.24 1454.1 1389.6 1454.1 M1389.6 1450.39 Q1395.41 1450.39 1398.47 1455 Q1401.55 1459.58 1401.55 1468.33 Q1401.55 1477.06 1398.47 1481.67 Q1395.41 1486.25 1389.6 1486.25 Q1383.79 1486.25 1380.71 1481.67 Q1377.66 1477.06 1377.66 1468.33 Q1377.66 1459.58 1380.71 1455 Q1383.79 1450.39 1389.6 1450.39 Z" fill="#000000" fill-rule="nonzero" fill-opacity="1" /><path clip-path="url(#clip390)" d="M1856.02 1481.64 L1863.66 1481.64 L1863.66 1455.28 L1855.35 1456.95 L1855.35 1452.69 L1863.61 1451.02 L1868.29 1451.02 L1868.29 1481.64 L1875.93 1481.64 L1875.93 1485.58 L1856.02 1485.58 L1856.02 1481.64 Z" fill="#000000" fill-rule="nonzero" fill-opacity="1" /><path clip-path="url(#clip390)" d="M1885.42 1451.02 L1903.77 1451.02 L1903.77 1454.96 L1889.7 1454.96 L1889.7 1463.43 Q1890.72 1463.08 1891.74 1462.92 Q1892.75 1462.73 1893.77 1462.73 Q1899.56 1462.73 1902.94 1465.9 Q1906.32 1469.08 1906.32 1474.49 Q1906.32 1480.07 1902.85 1483.17 Q1899.38 1486.25 1893.06 1486.25 Q1890.88 1486.25 1888.61 1485.88 Q1886.37 1485.51 1883.96 1484.77 L1883.96 1480.07 Q1886.04 1481.2 1888.26 1481.76 Q1890.49 1482.32 1892.96 1482.32 Q1896.97 1482.32 1899.31 1480.21 Q1901.64 1478.1 1901.64 1474.49 Q1901.64 1470.88 1899.31 1468.77 Q1896.97 1466.67 1892.96 1466.67 Q1891.09 1466.67 1889.21 1467.08 Q1887.36 1467.5 1885.42 1468.38 L1885.42 1451.02 Z" fill="#000000" fill-rule="nonzero" fill-opacity="1" /><path clip-path="url(#clip390)" d="M1334.2 1522.27 L1334.2 1532.4 L1346.27 1532.4 L1346.27 1536.95 L1334.2 1536.95 L1334.2 1556.3 Q1334.2 1560.66 1335.38 1561.9 Q1336.59 1563.14 1340.25 1563.14 L1346.27 1563.14 L1346.27 1568.04 L1340.25 1568.04 Q1333.47 1568.04 1330.89 1565.53 Q1328.31 1562.98 1328.31 1556.3 L1328.31 1536.95 L1324.02 1536.95 L1324.02 1532.4 L1328.31 1532.4 L1328.31 1522.27 L1334.2 1522.27 Z" fill="#000000" fill-rule="nonzero" fill-opacity="1" /><polyline clip-path="url(#clip392)" style="stroke:#000000; stroke-linecap:round; stroke-linejoin:round; stroke-width:2; stroke-opacity:0.1; fill:none" points="317.528,1223.31 2352.76,1223.31 "/>
<polyline clip-path="url(#clip392)" style="stroke:#000000; stroke-linecap:round; stroke-linejoin:round; stroke-width:2; stroke-opacity:0.1; fill:none" points="317.528,1010.83 2352.76,1010.83 "/>
<polyline clip-path="url(#clip392)" style="stroke:#000000; stroke-linecap:round; stroke-linejoin:round; stroke-width:2; stroke-opacity:0.1; fill:none" points="317.528,798.36 2352.76,798.36 "/>
<polyline clip-path="url(#clip392)" style="stroke:#000000; stroke-linecap:round; stroke-linejoin:round; stroke-width:2; stroke-opacity:0.1; fill:none" points="317.528,585.887 2352.76,585.887 "/>
<polyline clip-path="url(#clip392)" style="stroke:#000000; stroke-linecap:round; stroke-linejoin:round; stroke-width:2; stroke-opacity:0.1; fill:none" points="317.528,373.414 2352.76,373.414 "/>
<polyline clip-path="url(#clip392)" style="stroke:#000000; stroke-linecap:round; stroke-linejoin:round; stroke-width:2; stroke-opacity:0.1; fill:none" points="317.528,160.94 2352.76,160.94 "/>
<polyline clip-path="url(#clip390)" style="stroke:#000000; stroke-linecap:round; stroke-linejoin:round; stroke-width:4; stroke-opacity:1; fill:none" points="317.528,1423.18 317.528,47.2441 "/>
<polyline clip-path="url(#clip390)" style="stroke:#000000; stroke-linecap:round; stroke-linejoin:round; stroke-width:4; stroke-opacity:1; fill:none" points="317.528,1223.31 336.425,1223.31 "/>
<polyline clip-path="url(#clip390)" style="stroke:#000000; stroke-linecap:round; stroke-linejoin:round; stroke-width:4; stroke-opacity:1; fill:none" points="317.528,1010.83 336.425,1010.83 "/>
<polyline clip-path="url(#clip390)" style="stroke:#000000; stroke-linecap:round; stroke-linejoin:round; stroke-width:4; stroke-opacity:1; fill:none" points="317.528,798.36 336.425,798.36 "/>
<polyline clip-path="url(#clip390)" style="stroke:#000000; stroke-linecap:round; stroke-linejoin:round; stroke-width:4; stroke-opacity:1; fill:none" points="317.528,585.887 336.425,585.887 "/>
<polyline clip-path="url(#clip390)" style="stroke:#000000; stroke-linecap:round; stroke-linejoin:round; stroke-width:4; stroke-opacity:1; fill:none" points="317.528,373.414 336.425,373.414 "/>
<polyline clip-path="url(#clip390)" style="stroke:#000000; stroke-linecap:round; stroke-linejoin:round; stroke-width:4; stroke-opacity:1; fill:none" points="317.528,160.94 336.425,160.94 "/>
<path clip-path="url(#clip390)" d="M115.256 1223.76 L144.931 1223.76 L144.931 1227.69 L115.256 1227.69 L115.256 1223.76 Z" fill="#000000" fill-rule="nonzero" fill-opacity="1" /><path clip-path="url(#clip390)" d="M165.024 1209.1 Q161.413 1209.1 159.584 1212.67 Q157.778 1216.21 157.778 1223.34 Q157.778 1230.45 159.584 1234.01 Q161.413 1237.55 165.024 1237.55 Q168.658 1237.55 170.464 1234.01 Q172.292 1230.45 172.292 1223.34 Q172.292 1216.21 170.464 1212.67 Q168.658 1209.1 165.024 1209.1 M165.024 1205.4 Q170.834 1205.4 173.889 1210.01 Q176.968 1214.59 176.968 1223.34 Q176.968 1232.07 173.889 1236.67 Q170.834 1241.26 165.024 1241.26 Q159.214 1241.26 156.135 1236.67 Q153.079 1232.07 153.079 1223.34 Q153.079 1214.59 156.135 1210.01 Q159.214 1205.4 165.024 1205.4 Z" fill="#000000" fill-rule="nonzero" fill-opacity="1" /><path clip-path="url(#clip390)" d="M185.186 1234.71 L190.07 1234.71 L190.07 1240.59 L185.186 1240.59 L185.186 1234.71 Z" fill="#000000" fill-rule="nonzero" fill-opacity="1" /><path clip-path="url(#clip390)" d="M200.394 1239.87 L200.394 1235.61 Q202.153 1236.44 203.959 1236.88 Q205.764 1237.32 207.5 1237.32 Q212.13 1237.32 214.561 1234.22 Q217.014 1231.1 217.361 1224.75 Q216.019 1226.74 213.959 1227.81 Q211.899 1228.87 209.399 1228.87 Q204.213 1228.87 201.181 1225.75 Q198.172 1222.6 198.172 1217.16 Q198.172 1211.84 201.32 1208.62 Q204.468 1205.4 209.699 1205.4 Q215.695 1205.4 218.843 1210.01 Q222.014 1214.59 222.014 1223.34 Q222.014 1231.51 218.125 1236.4 Q214.26 1241.26 207.709 1241.26 Q205.949 1241.26 204.144 1240.91 Q202.338 1240.56 200.394 1239.87 M209.699 1225.22 Q212.848 1225.22 214.676 1223.06 Q216.528 1220.91 216.528 1217.16 Q216.528 1213.43 214.676 1211.28 Q212.848 1209.1 209.699 1209.1 Q206.551 1209.1 204.699 1211.28 Q202.871 1213.43 202.871 1217.16 Q202.871 1220.91 204.699 1223.06 Q206.551 1225.22 209.699 1225.22 Z" fill="#000000" fill-rule="nonzero" fill-opacity="1" /><path clip-path="url(#clip390)" d="M230.556 1239.87 L230.556 1235.61 Q232.315 1236.44 234.121 1236.88 Q235.926 1237.32 237.662 1237.32 Q242.292 1237.32 244.722 1234.22 Q247.176 1231.1 247.523 1224.75 Q246.181 1226.74 244.121 1227.81 Q242.06 1228.87 239.56 1228.87 Q234.375 1228.87 231.343 1225.75 Q228.334 1222.6 228.334 1217.16 Q228.334 1211.84 231.482 1208.62 Q234.63 1205.4 239.861 1205.4 Q245.857 1205.4 249.005 1210.01 Q252.176 1214.59 252.176 1223.34 Q252.176 1231.51 248.287 1236.4 Q244.421 1241.26 237.871 1241.26 Q236.111 1241.26 234.306 1240.91 Q232.5 1240.56 230.556 1239.87 M239.861 1225.22 Q243.009 1225.22 244.838 1223.06 Q246.69 1220.91 246.69 1217.16 Q246.69 1213.43 244.838 1211.28 Q243.009 1209.1 239.861 1209.1 Q236.713 1209.1 234.861 1211.28 Q233.033 1213.43 233.033 1217.16 Q233.033 1220.91 234.861 1223.06 Q236.713 1225.22 239.861 1225.22 Z" fill="#000000" fill-rule="nonzero" fill-opacity="1" /><path clip-path="url(#clip390)" d="M260.625 1206.03 L278.981 1206.03 L278.981 1209.96 L264.907 1209.96 L264.907 1218.43 Q265.926 1218.09 266.945 1217.92 Q267.963 1217.74 268.982 1217.74 Q274.769 1217.74 278.148 1220.91 Q281.528 1224.08 281.528 1229.5 Q281.528 1235.08 278.056 1238.18 Q274.583 1241.26 268.264 1241.26 Q266.088 1241.26 263.82 1240.89 Q261.574 1240.52 259.167 1239.78 L259.167 1235.08 Q261.25 1236.21 263.472 1236.77 Q265.695 1237.32 268.171 1237.32 Q272.176 1237.32 274.514 1235.22 Q276.852 1233.11 276.852 1229.5 Q276.852 1225.89 274.514 1223.78 Q272.176 1221.67 268.171 1221.67 Q266.296 1221.67 264.421 1222.09 Q262.57 1222.51 260.625 1223.39 L260.625 1206.03 Z" fill="#000000" fill-rule="nonzero" fill-opacity="1" /><path clip-path="url(#clip390)" d="M114.26 1011.28 L143.936 1011.28 L143.936 1015.22 L114.26 1015.22 L114.26 1011.28 Z" fill="#000000" fill-rule="nonzero" fill-opacity="1" /><path clip-path="url(#clip390)" d="M164.028 996.632 Q160.417 996.632 158.589 1000.2 Q156.783 1003.74 156.783 1010.87 Q156.783 1017.97 158.589 1021.54 Q160.417 1025.08 164.028 1025.08 Q167.663 1025.08 169.468 1021.54 Q171.297 1017.97 171.297 1010.87 Q171.297 1003.74 169.468 1000.2 Q167.663 996.632 164.028 996.632 M164.028 992.928 Q169.839 992.928 172.894 997.534 Q175.973 1002.12 175.973 1010.87 Q175.973 1019.59 172.894 1024.2 Q169.839 1028.78 164.028 1028.78 Q158.218 1028.78 155.14 1024.2 Q152.084 1019.59 152.084 1010.87 Q152.084 1002.12 155.14 997.534 Q158.218 992.928 164.028 992.928 Z" fill="#000000" fill-rule="nonzero" fill-opacity="1" /><path clip-path="url(#clip390)" d="M184.19 1022.23 L189.075 1022.23 L189.075 1028.11 L184.19 1028.11 L184.19 1022.23 Z" fill="#000000" fill-rule="nonzero" fill-opacity="1" /><path clip-path="url(#clip390)" d="M199.399 1027.4 L199.399 1023.14 Q201.158 1023.97 202.963 1024.41 Q204.769 1024.85 206.505 1024.85 Q211.135 1024.85 213.565 1021.75 Q216.019 1018.62 216.366 1012.28 Q215.024 1014.27 212.963 1015.34 Q210.903 1016.4 208.403 1016.4 Q203.218 1016.4 200.186 1013.28 Q197.176 1010.13 197.176 1004.69 Q197.176 999.363 200.325 996.146 Q203.473 992.928 208.704 992.928 Q214.699 992.928 217.848 997.534 Q221.019 1002.12 221.019 1010.87 Q221.019 1019.04 217.13 1023.92 Q213.264 1028.78 206.713 1028.78 Q204.954 1028.78 203.149 1028.44 Q201.343 1028.09 199.399 1027.4 M208.704 1012.74 Q211.852 1012.74 213.681 1010.59 Q215.533 1008.44 215.533 1004.69 Q215.533 1000.96 213.681 998.808 Q211.852 996.632 208.704 996.632 Q205.556 996.632 203.704 998.808 Q201.875 1000.96 201.875 1004.69 Q201.875 1008.44 203.704 1010.59 Q205.556 1012.74 208.704 1012.74 Z" fill="#000000" fill-rule="nonzero" fill-opacity="1" /><path clip-path="url(#clip390)" d="M229.56 1027.4 L229.56 1023.14 Q231.32 1023.97 233.125 1024.41 Q234.931 1024.85 236.667 1024.85 Q241.297 1024.85 243.727 1021.75 Q246.181 1018.62 246.528 1012.28 Q245.185 1014.27 243.125 1015.34 Q241.065 1016.4 238.565 1016.4 Q233.38 1016.4 230.347 1013.28 Q227.338 1010.13 227.338 1004.69 Q227.338 999.363 230.486 996.146 Q233.635 992.928 238.866 992.928 Q244.861 992.928 248.009 997.534 Q251.181 1002.12 251.181 1010.87 Q251.181 1019.04 247.292 1023.92 Q243.426 1028.78 236.875 1028.78 Q235.116 1028.78 233.31 1028.44 Q231.505 1028.09 229.56 1027.4 M238.866 1012.74 Q242.014 1012.74 243.843 1010.59 Q245.695 1008.44 245.695 1004.69 Q245.695 1000.96 243.843 998.808 Q242.014 996.632 238.866 996.632 Q235.718 996.632 233.866 998.808 Q232.037 1000.96 232.037 1004.69 Q232.037 1008.44 233.866 1010.59 Q235.718 1012.74 238.866 1012.74 Z" fill="#000000" fill-rule="nonzero" fill-opacity="1" /><path clip-path="url(#clip390)" d="M269.583 996.632 Q265.972 996.632 264.144 1000.2 Q262.338 1003.74 262.338 1010.87 Q262.338 1017.97 264.144 1021.54 Q265.972 1025.08 269.583 1025.08 Q273.218 1025.08 275.023 1021.54 Q276.852 1017.97 276.852 1010.87 Q276.852 1003.74 275.023 1000.2 Q273.218 996.632 269.583 996.632 M269.583 992.928 Q275.394 992.928 278.449 997.534 Q281.528 1002.12 281.528 1010.87 Q281.528 1019.59 278.449 1024.2 Q275.394 1028.78 269.583 1028.78 Q263.773 1028.78 260.695 1024.2 Q257.639 1019.59 257.639 1010.87 Q257.639 1002.12 260.695 997.534 Q263.773 992.928 269.583 992.928 Z" fill="#000000" fill-rule="nonzero" fill-opacity="1" /><path clip-path="url(#clip390)" d="M115.256 798.811 L144.931 798.811 L144.931 802.746 L115.256 802.746 L115.256 798.811 Z" fill="#000000" fill-rule="nonzero" fill-opacity="1" /><path clip-path="url(#clip390)" d="M165.024 784.159 Q161.413 784.159 159.584 787.723 Q157.778 791.265 157.778 798.395 Q157.778 805.501 159.584 809.066 Q161.413 812.607 165.024 812.607 Q168.658 812.607 170.464 809.066 Q172.292 805.501 172.292 798.395 Q172.292 791.265 170.464 787.723 Q168.658 784.159 165.024 784.159 M165.024 780.455 Q170.834 780.455 173.889 785.061 Q176.968 789.645 176.968 798.395 Q176.968 807.121 173.889 811.728 Q170.834 816.311 165.024 816.311 Q159.214 816.311 156.135 811.728 Q153.079 807.121 153.079 798.395 Q153.079 789.645 156.135 785.061 Q159.214 780.455 165.024 780.455 Z" fill="#000000" fill-rule="nonzero" fill-opacity="1" /><path clip-path="url(#clip390)" d="M185.186 809.76 L190.07 809.76 L190.07 815.64 L185.186 815.64 L185.186 809.76 Z" fill="#000000" fill-rule="nonzero" fill-opacity="1" /><path clip-path="url(#clip390)" d="M200.394 814.922 L200.394 810.663 Q202.153 811.496 203.959 811.936 Q205.764 812.376 207.5 812.376 Q212.13 812.376 214.561 809.274 Q217.014 806.149 217.361 799.807 Q216.019 801.797 213.959 802.862 Q211.899 803.927 209.399 803.927 Q204.213 803.927 201.181 800.802 Q198.172 797.654 198.172 792.214 Q198.172 786.89 201.32 783.672 Q204.468 780.455 209.699 780.455 Q215.695 780.455 218.843 785.061 Q222.014 789.645 222.014 798.395 Q222.014 806.566 218.125 811.45 Q214.26 816.311 207.709 816.311 Q205.949 816.311 204.144 815.964 Q202.338 815.617 200.394 814.922 M209.699 800.27 Q212.848 800.27 214.676 798.117 Q216.528 795.964 216.528 792.214 Q216.528 788.487 214.676 786.334 Q212.848 784.159 209.699 784.159 Q206.551 784.159 204.699 786.334 Q202.871 788.487 202.871 792.214 Q202.871 795.964 204.699 798.117 Q206.551 800.27 209.699 800.27 Z" fill="#000000" fill-rule="nonzero" fill-opacity="1" /><path clip-path="url(#clip390)" d="M240.417 799.228 Q237.084 799.228 235.162 801.01 Q233.264 802.793 233.264 805.918 Q233.264 809.043 235.162 810.825 Q237.084 812.607 240.417 812.607 Q243.75 812.607 245.671 810.825 Q247.593 809.02 247.593 805.918 Q247.593 802.793 245.671 801.01 Q243.773 799.228 240.417 799.228 M235.741 797.237 Q232.732 796.496 231.042 794.436 Q229.375 792.376 229.375 789.413 Q229.375 785.27 232.315 782.862 Q235.278 780.455 240.417 780.455 Q245.579 780.455 248.519 782.862 Q251.458 785.27 251.458 789.413 Q251.458 792.376 249.769 794.436 Q248.102 796.496 245.116 797.237 Q248.496 798.024 250.371 800.316 Q252.269 802.608 252.269 805.918 Q252.269 810.941 249.19 813.626 Q246.134 816.311 240.417 816.311 Q234.699 816.311 231.621 813.626 Q228.565 810.941 228.565 805.918 Q228.565 802.608 230.463 800.316 Q232.361 798.024 235.741 797.237 M234.028 789.853 Q234.028 792.538 235.695 794.043 Q237.384 795.547 240.417 795.547 Q243.426 795.547 245.116 794.043 Q246.829 792.538 246.829 789.853 Q246.829 787.168 245.116 785.663 Q243.426 784.159 240.417 784.159 Q237.384 784.159 235.695 785.663 Q234.028 787.168 234.028 789.853 Z" fill="#000000" fill-rule="nonzero" fill-opacity="1" /><path clip-path="url(#clip390)" d="M260.625 781.08 L278.981 781.08 L278.981 785.015 L264.907 785.015 L264.907 793.487 Q265.926 793.14 266.945 792.978 Q267.963 792.793 268.982 792.793 Q274.769 792.793 278.148 795.964 Q281.528 799.135 281.528 804.552 Q281.528 810.131 278.056 813.232 Q274.583 816.311 268.264 816.311 Q266.088 816.311 263.82 815.941 Q261.574 815.57 259.167 814.83 L259.167 810.131 Q261.25 811.265 263.472 811.82 Q265.695 812.376 268.171 812.376 Q272.176 812.376 274.514 810.27 Q276.852 808.163 276.852 804.552 Q276.852 800.941 274.514 798.834 Q272.176 796.728 268.171 796.728 Q266.296 796.728 264.421 797.145 Q262.57 797.561 260.625 798.441 L260.625 781.08 Z" fill="#000000" fill-rule="nonzero" fill-opacity="1" /><path clip-path="url(#clip390)" d="M114.26 586.338 L143.936 586.338 L143.936 590.273 L114.26 590.273 L114.26 586.338 Z" fill="#000000" fill-rule="nonzero" fill-opacity="1" /><path clip-path="url(#clip390)" d="M164.028 571.685 Q160.417 571.685 158.589 575.25 Q156.783 578.792 156.783 585.921 Q156.783 593.028 158.589 596.593 Q160.417 600.134 164.028 600.134 Q167.663 600.134 169.468 596.593 Q171.297 593.028 171.297 585.921 Q171.297 578.792 169.468 575.25 Q167.663 571.685 164.028 571.685 M164.028 567.982 Q169.839 567.982 172.894 572.588 Q175.973 577.171 175.973 585.921 Q175.973 594.648 172.894 599.255 Q169.839 603.838 164.028 603.838 Q158.218 603.838 155.14 599.255 Q152.084 594.648 152.084 585.921 Q152.084 577.171 155.14 572.588 Q158.218 567.982 164.028 567.982 Z" fill="#000000" fill-rule="nonzero" fill-opacity="1" /><path clip-path="url(#clip390)" d="M184.19 597.287 L189.075 597.287 L189.075 603.167 L184.19 603.167 L184.19 597.287 Z" fill="#000000" fill-rule="nonzero" fill-opacity="1" /><path clip-path="url(#clip390)" d="M199.399 602.449 L199.399 598.19 Q201.158 599.023 202.963 599.463 Q204.769 599.903 206.505 599.903 Q211.135 599.903 213.565 596.801 Q216.019 593.676 216.366 587.333 Q215.024 589.324 212.963 590.389 Q210.903 591.454 208.403 591.454 Q203.218 591.454 200.186 588.329 Q197.176 585.181 197.176 579.741 Q197.176 574.417 200.325 571.199 Q203.473 567.982 208.704 567.982 Q214.699 567.982 217.848 572.588 Q221.019 577.171 221.019 585.921 Q221.019 594.093 217.13 598.977 Q213.264 603.838 206.713 603.838 Q204.954 603.838 203.149 603.491 Q201.343 603.144 199.399 602.449 M208.704 587.796 Q211.852 587.796 213.681 585.644 Q215.533 583.491 215.533 579.741 Q215.533 576.014 213.681 573.861 Q211.852 571.685 208.704 571.685 Q205.556 571.685 203.704 573.861 Q201.875 576.014 201.875 579.741 Q201.875 583.491 203.704 585.644 Q205.556 587.796 208.704 587.796 Z" fill="#000000" fill-rule="nonzero" fill-opacity="1" /><path clip-path="url(#clip390)" d="M239.422 586.755 Q236.088 586.755 234.167 588.537 Q232.269 590.32 232.269 593.445 Q232.269 596.57 234.167 598.352 Q236.088 600.134 239.422 600.134 Q242.755 600.134 244.676 598.352 Q246.597 596.546 246.597 593.445 Q246.597 590.32 244.676 588.537 Q242.778 586.755 239.422 586.755 M234.746 584.764 Q231.736 584.023 230.047 581.963 Q228.38 579.903 228.38 576.94 Q228.38 572.796 231.32 570.389 Q234.283 567.982 239.422 567.982 Q244.584 567.982 247.523 570.389 Q250.463 572.796 250.463 576.94 Q250.463 579.903 248.773 581.963 Q247.107 584.023 244.121 584.764 Q247.5 585.551 249.375 587.843 Q251.273 590.134 251.273 593.445 Q251.273 598.468 248.195 601.153 Q245.139 603.838 239.422 603.838 Q233.704 603.838 230.625 601.153 Q227.57 598.468 227.57 593.445 Q227.57 590.134 229.468 587.843 Q231.366 585.551 234.746 584.764 M233.033 577.38 Q233.033 580.065 234.699 581.57 Q236.389 583.074 239.422 583.074 Q242.431 583.074 244.121 581.57 Q245.834 580.065 245.834 577.38 Q245.834 574.695 244.121 573.19 Q242.431 571.685 239.422 571.685 Q236.389 571.685 234.699 573.19 Q233.033 574.695 233.033 577.38 Z" fill="#000000" fill-rule="nonzero" fill-opacity="1" /><path clip-path="url(#clip390)" d="M269.583 571.685 Q265.972 571.685 264.144 575.25 Q262.338 578.792 262.338 585.921 Q262.338 593.028 264.144 596.593 Q265.972 600.134 269.583 600.134 Q273.218 600.134 275.023 596.593 Q276.852 593.028 276.852 585.921 Q276.852 578.792 275.023 575.25 Q273.218 571.685 269.583 571.685 M269.583 567.982 Q275.394 567.982 278.449 572.588 Q281.528 577.171 281.528 585.921 Q281.528 594.648 278.449 599.255 Q275.394 603.838 269.583 603.838 Q263.773 603.838 260.695 599.255 Q257.639 594.648 257.639 585.921 Q257.639 577.171 260.695 572.588 Q263.773 567.982 269.583 567.982 Z" fill="#000000" fill-rule="nonzero" fill-opacity="1" /><path clip-path="url(#clip390)" d="M115.256 373.865 L144.931 373.865 L144.931 377.8 L115.256 377.8 L115.256 373.865 Z" fill="#000000" fill-rule="nonzero" fill-opacity="1" /><path clip-path="url(#clip390)" d="M165.024 359.212 Q161.413 359.212 159.584 362.777 Q157.778 366.319 157.778 373.448 Q157.778 380.555 159.584 384.12 Q161.413 387.661 165.024 387.661 Q168.658 387.661 170.464 384.12 Q172.292 380.555 172.292 373.448 Q172.292 366.319 170.464 362.777 Q168.658 359.212 165.024 359.212 M165.024 355.509 Q170.834 355.509 173.889 360.115 Q176.968 364.698 176.968 373.448 Q176.968 382.175 173.889 386.782 Q170.834 391.365 165.024 391.365 Q159.214 391.365 156.135 386.782 Q153.079 382.175 153.079 373.448 Q153.079 364.698 156.135 360.115 Q159.214 355.509 165.024 355.509 Z" fill="#000000" fill-rule="nonzero" fill-opacity="1" /><path clip-path="url(#clip390)" d="M185.186 384.814 L190.07 384.814 L190.07 390.694 L185.186 390.694 L185.186 384.814 Z" fill="#000000" fill-rule="nonzero" fill-opacity="1" /><path clip-path="url(#clip390)" d="M200.394 389.976 L200.394 385.717 Q202.153 386.55 203.959 386.99 Q205.764 387.43 207.5 387.43 Q212.13 387.43 214.561 384.328 Q217.014 381.203 217.361 374.86 Q216.019 376.851 213.959 377.916 Q211.899 378.981 209.399 378.981 Q204.213 378.981 201.181 375.856 Q198.172 372.708 198.172 367.268 Q198.172 361.944 201.32 358.726 Q204.468 355.509 209.699 355.509 Q215.695 355.509 218.843 360.115 Q222.014 364.698 222.014 373.448 Q222.014 381.62 218.125 386.504 Q214.26 391.365 207.709 391.365 Q205.949 391.365 204.144 391.018 Q202.338 390.67 200.394 389.976 M209.699 375.323 Q212.848 375.323 214.676 373.17 Q216.528 371.018 216.528 367.268 Q216.528 363.541 214.676 361.388 Q212.848 359.212 209.699 359.212 Q206.551 359.212 204.699 361.388 Q202.871 363.541 202.871 367.268 Q202.871 371.018 204.699 373.17 Q206.551 375.323 209.699 375.323 Z" fill="#000000" fill-rule="nonzero" fill-opacity="1" /><path clip-path="url(#clip390)" d="M229.236 356.134 L251.458 356.134 L251.458 358.124 L238.912 390.694 L234.028 390.694 L245.834 360.069 L229.236 360.069 L229.236 356.134 Z" fill="#000000" fill-rule="nonzero" fill-opacity="1" /><path clip-path="url(#clip390)" d="M260.625 356.134 L278.981 356.134 L278.981 360.069 L264.907 360.069 L264.907 368.541 Q265.926 368.194 266.945 368.032 Q267.963 367.846 268.982 367.846 Q274.769 367.846 278.148 371.018 Q281.528 374.189 281.528 379.606 Q281.528 385.184 278.056 388.286 Q274.583 391.365 268.264 391.365 Q266.088 391.365 263.82 390.994 Q261.574 390.624 259.167 389.883 L259.167 385.184 Q261.25 386.319 263.472 386.874 Q265.695 387.43 268.171 387.43 Q272.176 387.43 274.514 385.323 Q276.852 383.217 276.852 379.606 Q276.852 375.995 274.514 373.888 Q272.176 371.782 268.171 371.782 Q266.296 371.782 264.421 372.198 Q262.57 372.615 260.625 373.495 L260.625 356.134 Z" fill="#000000" fill-rule="nonzero" fill-opacity="1" /><path clip-path="url(#clip390)" d="M114.26 161.392 L143.936 161.392 L143.936 165.327 L114.26 165.327 L114.26 161.392 Z" fill="#000000" fill-rule="nonzero" fill-opacity="1" /><path clip-path="url(#clip390)" d="M164.028 146.739 Q160.417 146.739 158.589 150.304 Q156.783 153.846 156.783 160.975 Q156.783 168.082 158.589 171.646 Q160.417 175.188 164.028 175.188 Q167.663 175.188 169.468 171.646 Q171.297 168.082 171.297 160.975 Q171.297 153.846 169.468 150.304 Q167.663 146.739 164.028 146.739 M164.028 143.035 Q169.839 143.035 172.894 147.642 Q175.973 152.225 175.973 160.975 Q175.973 169.702 172.894 174.308 Q169.839 178.892 164.028 178.892 Q158.218 178.892 155.14 174.308 Q152.084 169.702 152.084 160.975 Q152.084 152.225 155.14 147.642 Q158.218 143.035 164.028 143.035 Z" fill="#000000" fill-rule="nonzero" fill-opacity="1" /><path clip-path="url(#clip390)" d="M184.19 172.341 L189.075 172.341 L189.075 178.22 L184.19 178.22 L184.19 172.341 Z" fill="#000000" fill-rule="nonzero" fill-opacity="1" /><path clip-path="url(#clip390)" d="M199.399 177.503 L199.399 173.244 Q201.158 174.077 202.963 174.517 Q204.769 174.957 206.505 174.957 Q211.135 174.957 213.565 171.855 Q216.019 168.73 216.366 162.387 Q215.024 164.378 212.963 165.443 Q210.903 166.507 208.403 166.507 Q203.218 166.507 200.186 163.382 Q197.176 160.234 197.176 154.795 Q197.176 149.471 200.325 146.253 Q203.473 143.035 208.704 143.035 Q214.699 143.035 217.848 147.642 Q221.019 152.225 221.019 160.975 Q221.019 169.146 217.13 174.031 Q213.264 178.892 206.713 178.892 Q204.954 178.892 203.149 178.544 Q201.343 178.197 199.399 177.503 M208.704 162.85 Q211.852 162.85 213.681 160.697 Q215.533 158.545 215.533 154.795 Q215.533 151.068 213.681 148.915 Q211.852 146.739 208.704 146.739 Q205.556 146.739 203.704 148.915 Q201.875 151.068 201.875 154.795 Q201.875 158.545 203.704 160.697 Q205.556 162.85 208.704 162.85 Z" fill="#000000" fill-rule="nonzero" fill-opacity="1" /><path clip-path="url(#clip390)" d="M228.241 143.66 L250.463 143.66 L250.463 145.651 L237.917 178.22 L233.033 178.22 L244.838 147.596 L228.241 147.596 L228.241 143.66 Z" fill="#000000" fill-rule="nonzero" fill-opacity="1" /><path clip-path="url(#clip390)" d="M269.583 146.739 Q265.972 146.739 264.144 150.304 Q262.338 153.846 262.338 160.975 Q262.338 168.082 264.144 171.646 Q265.972 175.188 269.583 175.188 Q273.218 175.188 275.023 171.646 Q276.852 168.082 276.852 160.975 Q276.852 153.846 275.023 150.304 Q273.218 146.739 269.583 146.739 M269.583 143.035 Q275.394 143.035 278.449 147.642 Q281.528 152.225 281.528 160.975 Q281.528 169.702 278.449 174.308 Q275.394 178.892 269.583 178.892 Q263.773 178.892 260.695 174.308 Q257.639 169.702 257.639 160.975 Q257.639 152.225 260.695 147.642 Q263.773 143.035 269.583 143.035 Z" fill="#000000" fill-rule="nonzero" fill-opacity="1" /><path clip-path="url(#clip390)" d="M31.921 812.921 L43.6021 845.768 L55.2195 812.921 L61.0123 812.921 L46.212 853.726 L40.9285 853.726 L26.1282 812.921 L31.921 812.921 Z" fill="#000000" fill-rule="nonzero" fill-opacity="1" /><path clip-path="url(#clip390)" d="M33.0032 786.058 Q33.0032 790.896 36.5043 793.506 Q40.1646 796.243 46.212 796.243 Q52.6095 796.243 56.3017 793.538 Q59.9619 790.801 59.9619 786.058 Q59.9619 781.379 56.2698 778.642 Q52.5777 775.905 46.212 775.905 Q40.3874 775.905 36.5043 778.642 Q33.0032 781.156 33.0032 786.058 M28.3562 786.058 L28.3562 766.611 L34.2127 766.611 L34.2127 773.167 Q39.1779 769.698 46.212 769.698 Q54.9649 769.698 59.9301 774.059 Q64.9272 778.419 64.9272 786.058 Q64.9272 793.729 59.9301 798.057 Q54.9649 802.418 46.212 802.418 Q37.3955 802.418 32.4621 798.057 Q28.3562 794.461 28.3562 786.058 Z" fill="#000000" fill-rule="nonzero" fill-opacity="1" /><path clip-path="url(#clip390)" d="M22.7862 762.441 L22.7862 744.904 L25.7781 744.904 L40.1328 758.781 L40.1328 744.904 L42.7427 744.904 L42.7427 762.951 L39.7508 762.951 L25.3961 749.073 L25.3961 762.441 L22.7862 762.441 Z" fill="#000000" fill-rule="nonzero" fill-opacity="1" /><path clip-path="url(#clip390)" d="M14.5426 720.619 Q21.8632 724.884 29.0246 726.952 Q36.186 729.021 43.5384 729.021 Q50.8908 729.021 58.1159 726.952 Q65.3091 724.852 72.5979 720.619 L72.5979 725.711 Q65.1182 730.485 57.8931 732.873 Q50.668 735.228 43.5384 735.228 Q36.4406 735.228 29.2474 732.873 Q22.0542 730.517 14.5426 725.711 L14.5426 720.619 Z" fill="#000000" fill-rule="nonzero" fill-opacity="1" /><path clip-path="url(#clip390)" d="M18.2347 703.463 L28.3562 703.463 L28.3562 691.4 L32.9077 691.4 L32.9077 703.463 L52.2594 703.463 Q56.6199 703.463 57.8613 702.285 Q59.1026 701.076 59.1026 697.416 L59.1026 691.4 L64.0042 691.4 L64.0042 697.416 Q64.0042 704.195 61.4897 706.773 Q58.9434 709.351 52.2594 709.351 L32.9077 709.351 L32.9077 713.648 L28.3562 713.648 L28.3562 709.351 L18.2347 709.351 L18.2347 703.463 Z" fill="#000000" fill-rule="nonzero" fill-opacity="1" /><path clip-path="url(#clip390)" d="M14.5426 684.621 L14.5426 679.528 Q22.0542 674.754 29.2474 672.398 Q36.4406 670.011 43.5384 670.011 Q50.668 670.011 57.8931 672.398 Q65.1182 674.754 72.5979 679.528 L72.5979 684.621 Q65.3091 680.387 58.1159 678.318 Q50.8908 676.218 43.5384 676.218 Q36.186 676.218 29.0246 678.318 Q21.8632 680.387 14.5426 684.621 Z" fill="#000000" fill-rule="nonzero" fill-opacity="1" /><path clip-path="url(#clip390)" d="M31.921 657.503 L26.1282 657.503 L40.9285 616.698 L46.212 616.698 L61.0123 657.503 L55.2195 657.503 L43.6021 624.719 L31.921 657.503 Z" fill="#000000" fill-rule="nonzero" fill-opacity="1" /><polyline clip-path="url(#clip392)" style="stroke:#000000; stroke-linecap:round; stroke-linejoin:round; stroke-width:4; stroke-opacity:1; fill:none" points="375.129,1383.38 476.183,1234.55 577.237,1013.01 678.291,753.726 779.345,496.99 880.399,281.629 981.453,138.622 1082.51,86.1857 1183.56,127.174 1284.61,249.173 1385.67,427.178 1486.72,628.302 1587.78,817.607 1688.83,963.983 1789.88,1045.05 1890.94,1050.3 1991.99,981.936 2093.05,853.591 2194.1,687.073 2295.16,508.038 "/>
<circle clip-path="url(#clip392)" cx="375.129" cy="1384.24" r="14.4" fill="#e26f46" fill-rule="evenodd" fill-opacity="1" stroke="#000000" stroke-opacity="1" stroke-width="3.2"/>
<circle clip-path="url(#clip392)" cx="476.183" cy="1237.8" r="14.4" fill="#e26f46" fill-rule="evenodd" fill-opacity="1" stroke="#000000" stroke-opacity="1" stroke-width="3.2"/>
<circle clip-path="url(#clip392)" cx="577.237" cy="1019.63" r="14.4" fill="#e26f46" fill-rule="evenodd" fill-opacity="1" stroke="#000000" stroke-opacity="1" stroke-width="3.2"/>
<circle clip-path="url(#clip392)" cx="678.291" cy="763.928" r="14.4" fill="#e26f46" fill-rule="evenodd" fill-opacity="1" stroke="#000000" stroke-opacity="1" stroke-width="3.2"/>
<circle clip-path="url(#clip392)" cx="779.345" cy="510.155" r="14.4" fill="#e26f46" fill-rule="evenodd" fill-opacity="1" stroke="#000000" stroke-opacity="1" stroke-width="3.2"/>
<circle clip-path="url(#clip392)" cx="880.399" cy="296.449" r="14.4" fill="#e26f46" fill-rule="evenodd" fill-opacity="1" stroke="#000000" stroke-opacity="1" stroke-width="3.2"/>
<circle clip-path="url(#clip392)" cx="981.453" cy="153.384" r="14.4" fill="#e26f46" fill-rule="evenodd" fill-opacity="1" stroke="#000000" stroke-opacity="1" stroke-width="3.2"/>
<circle clip-path="url(#clip392)" cx="1082.51" cy="99.1551" r="14.4" fill="#e26f46" fill-rule="evenodd" fill-opacity="1" stroke="#000000" stroke-opacity="1" stroke-width="3.2"/>
<circle clip-path="url(#clip392)" cx="1183.56" cy="136.987" r="14.4" fill="#e26f46" fill-rule="evenodd" fill-opacity="1" stroke="#000000" stroke-opacity="1" stroke-width="3.2"/>
<circle clip-path="url(#clip392)" cx="1284.61" cy="255.145" r="14.4" fill="#e26f46" fill-rule="evenodd" fill-opacity="1" stroke="#000000" stroke-opacity="1" stroke-width="3.2"/>
<circle clip-path="url(#clip392)" cx="1385.67" cy="429.477" r="14.4" fill="#e26f46" fill-rule="evenodd" fill-opacity="1" stroke="#000000" stroke-opacity="1" stroke-width="3.2"/>
<circle clip-path="url(#clip392)" cx="1486.72" cy="627.93" r="14.4" fill="#e26f46" fill-rule="evenodd" fill-opacity="1" stroke="#000000" stroke-opacity="1" stroke-width="3.2"/>
<circle clip-path="url(#clip392)" cx="1587.78" cy="816.208" r="14.4" fill="#e26f46" fill-rule="evenodd" fill-opacity="1" stroke="#000000" stroke-opacity="1" stroke-width="3.2"/>
<circle clip-path="url(#clip392)" cx="1688.83" cy="963.513" r="14.4" fill="#e26f46" fill-rule="evenodd" fill-opacity="1" stroke="#000000" stroke-opacity="1" stroke-width="3.2"/>
<circle clip-path="url(#clip392)" cx="1789.88" cy="1047.39" r="14.4" fill="#e26f46" fill-rule="evenodd" fill-opacity="1" stroke="#000000" stroke-opacity="1" stroke-width="3.2"/>
<circle clip-path="url(#clip392)" cx="1890.94" cy="1056.84" r="14.4" fill="#e26f46" fill-rule="evenodd" fill-opacity="1" stroke="#000000" stroke-opacity="1" stroke-width="3.2"/>
<circle clip-path="url(#clip392)" cx="1991.99" cy="993.371" r="14.4" fill="#e26f46" fill-rule="evenodd" fill-opacity="1" stroke="#000000" stroke-opacity="1" stroke-width="3.2"/>
<circle clip-path="url(#clip392)" cx="2093.05" cy="869.727" r="14.4" fill="#e26f46" fill-rule="evenodd" fill-opacity="1" stroke="#000000" stroke-opacity="1" stroke-width="3.2"/>
<circle clip-path="url(#clip392)" cx="2194.1" cy="706.913" r="14.4" fill="#e26f46" fill-rule="evenodd" fill-opacity="1" stroke="#000000" stroke-opacity="1" stroke-width="3.2"/>
<circle clip-path="url(#clip392)" cx="2295.16" cy="529.993" r="14.4" fill="#e26f46" fill-rule="evenodd" fill-opacity="1" stroke="#000000" stroke-opacity="1" stroke-width="3.2"/>
<circle clip-path="url(#clip392)" cx="375.129" cy="1383.37" r="14.4" fill="#3da44d" fill-rule="evenodd" fill-opacity="1" stroke="#000000" stroke-opacity="1" stroke-width="3.2"/>
<circle clip-path="url(#clip392)" cx="476.183" cy="1234.56" r="14.4" fill="#3da44d" fill-rule="evenodd" fill-opacity="1" stroke="#000000" stroke-opacity="1" stroke-width="3.2"/>
<circle clip-path="url(#clip392)" cx="577.237" cy="1013.13" r="14.4" fill="#3da44d" fill-rule="evenodd" fill-opacity="1" stroke="#000000" stroke-opacity="1" stroke-width="3.2"/>
<circle clip-path="url(#clip392)" cx="678.291" cy="754.126" r="14.4" fill="#3da44d" fill-rule="evenodd" fill-opacity="1" stroke="#000000" stroke-opacity="1" stroke-width="3.2"/>
<circle clip-path="url(#clip392)" cx="779.345" cy="497.92" r="14.4" fill="#3da44d" fill-rule="evenodd" fill-opacity="1" stroke="#000000" stroke-opacity="1" stroke-width="3.2"/>
<circle clip-path="url(#clip392)" cx="880.399" cy="283.374" r="14.4" fill="#3da44d" fill-rule="evenodd" fill-opacity="1" stroke="#000000" stroke-opacity="1" stroke-width="3.2"/>
<circle clip-path="url(#clip392)" cx="981.453" cy="141.435" r="14.4" fill="#3da44d" fill-rule="evenodd" fill-opacity="1" stroke="#000000" stroke-opacity="1" stroke-width="3.2"/>
<circle clip-path="url(#clip392)" cx="1082.51" cy="90.2147" r="14.4" fill="#3da44d" fill-rule="evenodd" fill-opacity="1" stroke="#000000" stroke-opacity="1" stroke-width="3.2"/>
<circle clip-path="url(#clip392)" cx="1183.56" cy="132.4" r="14.4" fill="#3da44d" fill-rule="evenodd" fill-opacity="1" stroke="#000000" stroke-opacity="1" stroke-width="3.2"/>
<circle clip-path="url(#clip392)" cx="1284.61" cy="255.373" r="14.4" fill="#3da44d" fill-rule="evenodd" fill-opacity="1" stroke="#000000" stroke-opacity="1" stroke-width="3.2"/>
<circle clip-path="url(#clip392)" cx="1385.67" cy="433.934" r="14.4" fill="#3da44d" fill-rule="evenodd" fill-opacity="1" stroke="#000000" stroke-opacity="1" stroke-width="3.2"/>
<circle clip-path="url(#clip392)" cx="1486.72" cy="635.051" r="14.4" fill="#3da44d" fill-rule="evenodd" fill-opacity="1" stroke="#000000" stroke-opacity="1" stroke-width="3.2"/>
<circle clip-path="url(#clip392)" cx="1587.78" cy="823.724" r="14.4" fill="#3da44d" fill-rule="evenodd" fill-opacity="1" stroke="#000000" stroke-opacity="1" stroke-width="3.2"/>
<circle clip-path="url(#clip392)" cx="1688.83" cy="968.893" r="14.4" fill="#3da44d" fill-rule="evenodd" fill-opacity="1" stroke="#000000" stroke-opacity="1" stroke-width="3.2"/>
<circle clip-path="url(#clip392)" cx="1789.88" cy="1048.34" r="14.4" fill="#3da44d" fill-rule="evenodd" fill-opacity="1" stroke="#000000" stroke-opacity="1" stroke-width="3.2"/>
<circle clip-path="url(#clip392)" cx="1890.94" cy="1051.78" r="14.4" fill="#3da44d" fill-rule="evenodd" fill-opacity="1" stroke="#000000" stroke-opacity="1" stroke-width="3.2"/>
<circle clip-path="url(#clip392)" cx="1991.99" cy="981.73" r="14.4" fill="#3da44d" fill-rule="evenodd" fill-opacity="1" stroke="#000000" stroke-opacity="1" stroke-width="3.2"/>
<circle clip-path="url(#clip392)" cx="2093.05" cy="852.087" r="14.4" fill="#3da44d" fill-rule="evenodd" fill-opacity="1" stroke="#000000" stroke-opacity="1" stroke-width="3.2"/>
<circle clip-path="url(#clip392)" cx="2194.1" cy="684.879" r="14.4" fill="#3da44d" fill-rule="evenodd" fill-opacity="1" stroke="#000000" stroke-opacity="1" stroke-width="3.2"/>
<circle clip-path="url(#clip392)" cx="2295.16" cy="505.879" r="14.4" fill="#3da44d" fill-rule="evenodd" fill-opacity="1" stroke="#000000" stroke-opacity="1" stroke-width="3.2"/>
<path clip-path="url(#clip390)" d="M1857.74 300.469 L2284.91 300.469 L2284.91 93.1086 L1857.74 93.1086  Z" fill="#ffffff" fill-rule="evenodd" fill-opacity="1"/>
<polyline clip-path="url(#clip390)" style="stroke:#000000; stroke-linecap:round; stroke-linejoin:round; stroke-width:4; stroke-opacity:1; fill:none" points="1857.74,300.469 2284.91,300.469 2284.91,93.1086 1857.74,93.1086 1857.74,300.469 "/>
<polyline clip-path="url(#clip390)" style="stroke:#000000; stroke-linecap:round; stroke-linejoin:round; stroke-width:4; stroke-opacity:1; fill:none" points="1880.35,144.949 2016.03,144.949 "/>
<path clip-path="url(#clip390)" d="M2038.65 127.669 L2067.88 127.669 L2067.88 131.604 L2055.61 131.604 L2055.61 162.229 L2050.91 162.229 L2050.91 131.604 L2038.65 131.604 L2038.65 127.669 Z" fill="#000000" fill-rule="nonzero" fill-opacity="1" /><path clip-path="url(#clip390)" d="M2077.07 131.511 L2077.07 158.386 L2082.72 158.386 Q2089.87 158.386 2093.18 155.145 Q2096.52 151.905 2096.52 144.914 Q2096.52 137.969 2093.18 134.752 Q2089.87 131.511 2082.72 131.511 L2077.07 131.511 M2072.39 127.669 L2082 127.669 Q2092.05 127.669 2096.75 131.858 Q2101.45 136.025 2101.45 144.914 Q2101.45 153.849 2096.72 158.039 Q2092 162.229 2082 162.229 L2072.39 162.229 L2072.39 127.669 Z" fill="#000000" fill-rule="nonzero" fill-opacity="1" /><path clip-path="url(#clip390)" d="M2116.98 162.229 L2103.78 127.669 L2108.67 127.669 L2119.62 156.766 L2130.59 127.669 L2135.45 127.669 L2122.28 162.229 L2116.98 162.229 Z" fill="#000000" fill-rule="nonzero" fill-opacity="1" /><path clip-path="url(#clip390)" d="M2145.17 131.511 L2145.17 144.497 L2151.05 144.497 Q2154.32 144.497 2156.1 142.807 Q2157.88 141.118 2157.88 137.993 Q2157.88 134.891 2156.1 133.201 Q2154.32 131.511 2151.05 131.511 L2145.17 131.511 M2140.5 127.669 L2151.05 127.669 Q2156.86 127.669 2159.83 130.307 Q2162.81 132.923 2162.81 137.993 Q2162.81 143.108 2159.83 145.724 Q2156.86 148.34 2151.05 148.34 L2145.17 148.34 L2145.17 162.229 L2140.5 162.229 L2140.5 127.669 Z" fill="#000000" fill-rule="nonzero" fill-opacity="1" /><circle clip-path="url(#clip390)" cx="1948.19" cy="196.789" r="20.48" fill="#e26f46" fill-rule="evenodd" fill-opacity="1" stroke="#000000" stroke-opacity="1" stroke-width="4.55111"/>
<path clip-path="url(#clip390)" d="M2046.05 180.782 L2046.05 188.143 L2054.83 188.143 L2054.83 191.453 L2046.05 191.453 L2046.05 205.527 Q2046.05 208.698 2046.91 209.601 Q2047.79 210.504 2050.45 210.504 L2054.83 210.504 L2054.83 214.069 L2050.45 214.069 Q2045.52 214.069 2043.65 212.24 Q2041.77 210.388 2041.77 205.527 L2041.77 191.453 L2038.65 191.453 L2038.65 188.143 L2041.77 188.143 L2041.77 180.782 L2046.05 180.782 Z" fill="#000000" fill-rule="nonzero" fill-opacity="1" /><path clip-path="url(#clip390)" d="M2080.61 193.12 Q2082.21 190.249 2084.43 188.884 Q2086.65 187.518 2089.66 187.518 Q2093.71 187.518 2095.91 190.365 Q2098.11 193.189 2098.11 198.421 L2098.11 214.069 L2093.83 214.069 L2093.83 198.559 Q2093.83 194.833 2092.51 193.027 Q2091.19 191.222 2088.48 191.222 Q2085.17 191.222 2083.25 193.421 Q2081.33 195.62 2081.33 199.416 L2081.33 214.069 L2077.05 214.069 L2077.05 198.559 Q2077.05 194.809 2075.73 193.027 Q2074.41 191.222 2071.65 191.222 Q2068.39 191.222 2066.47 193.444 Q2064.55 195.643 2064.55 199.416 L2064.55 214.069 L2060.27 214.069 L2060.27 188.143 L2064.55 188.143 L2064.55 192.171 Q2066.01 189.786 2068.04 188.652 Q2070.08 187.518 2072.88 187.518 Q2075.71 187.518 2077.67 188.953 Q2079.66 190.388 2080.61 193.12 Z" fill="#000000" fill-rule="nonzero" fill-opacity="1" /><path clip-path="url(#clip390)" d="M2110.73 210.18 L2110.73 223.93 L2106.45 223.93 L2106.45 188.143 L2110.73 188.143 L2110.73 192.078 Q2112.07 189.763 2114.11 188.652 Q2116.17 187.518 2119.02 187.518 Q2123.74 187.518 2126.68 191.268 Q2129.64 195.018 2129.64 201.129 Q2129.64 207.24 2126.68 210.99 Q2123.74 214.74 2119.02 214.74 Q2116.17 214.74 2114.11 213.629 Q2112.07 212.495 2110.73 210.18 M2125.22 201.129 Q2125.22 196.43 2123.27 193.768 Q2121.35 191.083 2117.97 191.083 Q2114.59 191.083 2112.65 193.768 Q2110.73 196.43 2110.73 201.129 Q2110.73 205.828 2112.65 208.513 Q2114.59 211.175 2117.97 211.175 Q2121.35 211.175 2123.27 208.513 Q2125.22 205.828 2125.22 201.129 Z" fill="#000000" fill-rule="nonzero" fill-opacity="1" /><path clip-path="url(#clip390)" d="M2146.75 191.129 Q2143.32 191.129 2141.33 193.814 Q2139.34 196.476 2139.34 201.129 Q2139.34 205.782 2141.31 208.467 Q2143.3 211.129 2146.75 211.129 Q2150.15 211.129 2152.14 208.444 Q2154.13 205.758 2154.13 201.129 Q2154.13 196.522 2152.14 193.837 Q2150.15 191.129 2146.75 191.129 M2146.75 187.518 Q2152.3 187.518 2155.47 191.129 Q2158.64 194.74 2158.64 201.129 Q2158.64 207.495 2155.47 211.129 Q2152.3 214.74 2146.75 214.74 Q2141.17 214.74 2138 211.129 Q2134.85 207.495 2134.85 201.129 Q2134.85 194.74 2138 191.129 Q2141.17 187.518 2146.75 187.518 Z" fill="#000000" fill-rule="nonzero" fill-opacity="1" /><path clip-path="url(#clip390)" d="M2182.19 210.133 L2189.82 210.133 L2189.82 183.768 L2181.51 185.435 L2181.51 181.175 L2189.78 179.509 L2194.45 179.509 L2194.45 210.133 L2202.09 210.133 L2202.09 214.069 L2182.19 214.069 L2182.19 210.133 Z" fill="#000000" fill-rule="nonzero" fill-opacity="1" /><path clip-path="url(#clip390)" d="M2227.46 188.907 L2227.46 192.934 Q2225.66 192.009 2223.71 191.546 Q2221.77 191.083 2219.69 191.083 Q2216.51 191.083 2214.92 192.055 Q2213.34 193.027 2213.34 194.971 Q2213.34 196.453 2214.48 197.309 Q2215.61 198.143 2219.04 198.907 L2220.5 199.231 Q2225.03 200.203 2226.93 201.985 Q2228.85 203.745 2228.85 206.916 Q2228.85 210.527 2225.98 212.633 Q2223.13 214.74 2218.13 214.74 Q2216.05 214.74 2213.78 214.323 Q2211.54 213.93 2209.04 213.12 L2209.04 208.721 Q2211.4 209.948 2213.69 210.573 Q2215.98 211.175 2218.23 211.175 Q2221.24 211.175 2222.86 210.157 Q2224.48 209.115 2224.48 207.24 Q2224.48 205.504 2223.3 204.578 Q2222.14 203.652 2218.18 202.796 L2216.7 202.448 Q2212.74 201.615 2210.98 199.902 Q2209.22 198.166 2209.22 195.157 Q2209.22 191.499 2211.82 189.509 Q2214.41 187.518 2219.18 187.518 Q2221.54 187.518 2223.62 187.865 Q2225.7 188.212 2227.46 188.907 Z" fill="#000000" fill-rule="nonzero" fill-opacity="1" /><path clip-path="url(#clip390)" d="M2239.85 180.782 L2239.85 188.143 L2248.62 188.143 L2248.62 191.453 L2239.85 191.453 L2239.85 205.527 Q2239.85 208.698 2240.7 209.601 Q2241.58 210.504 2244.25 210.504 L2248.62 210.504 L2248.62 214.069 L2244.25 214.069 Q2239.32 214.069 2237.44 212.24 Q2235.57 210.388 2235.57 205.527 L2235.57 191.453 L2232.44 191.453 L2232.44 188.143 L2235.57 188.143 L2235.57 180.782 L2239.85 180.782 Z" fill="#000000" fill-rule="nonzero" fill-opacity="1" /><circle clip-path="url(#clip390)" cx="1948.19" cy="248.629" r="20.48" fill="#3da44d" fill-rule="evenodd" fill-opacity="1" stroke="#000000" stroke-opacity="1" stroke-width="4.55111"/>
<path clip-path="url(#clip390)" d="M2046.05 232.622 L2046.05 239.983 L2054.83 239.983 L2054.83 243.293 L2046.05 243.293 L2046.05 257.367 Q2046.05 260.538 2046.91 261.441 Q2047.79 262.344 2050.45 262.344 L2054.83 262.344 L2054.83 265.909 L2050.45 265.909 Q2045.52 265.909 2043.65 264.08 Q2041.77 262.228 2041.77 257.367 L2041.77 243.293 L2038.65 243.293 L2038.65 239.983 L2041.77 239.983 L2041.77 232.622 L2046.05 232.622 Z" fill="#000000" fill-rule="nonzero" fill-opacity="1" /><path clip-path="url(#clip390)" d="M2080.61 244.96 Q2082.21 242.089 2084.43 240.724 Q2086.65 239.358 2089.66 239.358 Q2093.71 239.358 2095.91 242.205 Q2098.11 245.029 2098.11 250.261 L2098.11 265.909 L2093.83 265.909 L2093.83 250.399 Q2093.83 246.673 2092.51 244.867 Q2091.19 243.062 2088.48 243.062 Q2085.17 243.062 2083.25 245.261 Q2081.33 247.46 2081.33 251.256 L2081.33 265.909 L2077.05 265.909 L2077.05 250.399 Q2077.05 246.649 2075.73 244.867 Q2074.41 243.062 2071.65 243.062 Q2068.39 243.062 2066.47 245.284 Q2064.55 247.483 2064.55 251.256 L2064.55 265.909 L2060.27 265.909 L2060.27 239.983 L2064.55 239.983 L2064.55 244.011 Q2066.01 241.626 2068.04 240.492 Q2070.08 239.358 2072.88 239.358 Q2075.71 239.358 2077.67 240.793 Q2079.66 242.228 2080.61 244.96 Z" fill="#000000" fill-rule="nonzero" fill-opacity="1" /><path clip-path="url(#clip390)" d="M2110.73 262.02 L2110.73 275.77 L2106.45 275.77 L2106.45 239.983 L2110.73 239.983 L2110.73 243.918 Q2112.07 241.603 2114.11 240.492 Q2116.17 239.358 2119.02 239.358 Q2123.74 239.358 2126.68 243.108 Q2129.64 246.858 2129.64 252.969 Q2129.64 259.08 2126.68 262.83 Q2123.74 266.58 2119.02 266.58 Q2116.17 266.58 2114.11 265.469 Q2112.07 264.335 2110.73 262.02 M2125.22 252.969 Q2125.22 248.27 2123.27 245.608 Q2121.35 242.923 2117.97 242.923 Q2114.59 242.923 2112.65 245.608 Q2110.73 248.27 2110.73 252.969 Q2110.73 257.668 2112.65 260.353 Q2114.59 263.015 2117.97 263.015 Q2121.35 263.015 2123.27 260.353 Q2125.22 257.668 2125.22 252.969 Z" fill="#000000" fill-rule="nonzero" fill-opacity="1" /><path clip-path="url(#clip390)" d="M2146.75 242.969 Q2143.32 242.969 2141.33 245.654 Q2139.34 248.316 2139.34 252.969 Q2139.34 257.622 2141.31 260.307 Q2143.3 262.969 2146.75 262.969 Q2150.15 262.969 2152.14 260.284 Q2154.13 257.598 2154.13 252.969 Q2154.13 248.362 2152.14 245.677 Q2150.15 242.969 2146.75 242.969 M2146.75 239.358 Q2152.3 239.358 2155.47 242.969 Q2158.64 246.58 2158.64 252.969 Q2158.64 259.335 2155.47 262.969 Q2152.3 266.58 2146.75 266.58 Q2141.17 266.58 2138 262.969 Q2134.85 259.335 2134.85 252.969 Q2134.85 246.58 2138 242.969 Q2141.17 239.358 2146.75 239.358 Z" fill="#000000" fill-rule="nonzero" fill-opacity="1" /><path clip-path="url(#clip390)" d="M2185.4 261.973 L2201.72 261.973 L2201.72 265.909 L2179.78 265.909 L2179.78 261.973 Q2182.44 259.219 2187.02 254.589 Q2191.63 249.936 2192.81 248.594 Q2195.06 246.071 2195.94 244.335 Q2196.84 242.575 2196.84 240.886 Q2196.84 238.131 2194.89 236.395 Q2192.97 234.659 2189.87 234.659 Q2187.67 234.659 2185.22 235.423 Q2182.79 236.187 2180.01 237.737 L2180.01 233.015 Q2182.83 231.881 2185.29 231.302 Q2187.74 230.724 2189.78 230.724 Q2195.15 230.724 2198.34 233.409 Q2201.54 236.094 2201.54 240.585 Q2201.54 242.714 2200.73 244.636 Q2199.94 246.534 2197.83 249.126 Q2197.26 249.798 2194.15 253.015 Q2191.05 256.21 2185.4 261.973 Z" fill="#000000" fill-rule="nonzero" fill-opacity="1" /><path clip-path="url(#clip390)" d="M2232.49 250.261 L2232.49 265.909 L2228.23 265.909 L2228.23 250.399 Q2228.23 246.719 2226.79 244.89 Q2225.36 243.062 2222.49 243.062 Q2219.04 243.062 2217.05 245.261 Q2215.06 247.46 2215.06 251.256 L2215.06 265.909 L2210.77 265.909 L2210.77 239.983 L2215.06 239.983 L2215.06 244.011 Q2216.58 241.673 2218.64 240.515 Q2220.73 239.358 2223.44 239.358 Q2227.9 239.358 2230.2 242.136 Q2232.49 244.89 2232.49 250.261 Z" fill="#000000" fill-rule="nonzero" fill-opacity="1" /><path clip-path="url(#clip390)" d="M2258.04 243.918 L2258.04 229.89 L2262.3 229.89 L2262.3 265.909 L2258.04 265.909 L2258.04 262.02 Q2256.7 264.335 2254.64 265.469 Q2252.6 266.58 2249.73 266.58 Q2245.03 266.58 2242.07 262.83 Q2239.13 259.08 2239.13 252.969 Q2239.13 246.858 2242.07 243.108 Q2245.03 239.358 2249.73 239.358 Q2252.6 239.358 2254.64 240.492 Q2256.7 241.603 2258.04 243.918 M2243.53 252.969 Q2243.53 257.668 2245.45 260.353 Q2247.39 263.015 2250.77 263.015 Q2254.15 263.015 2256.1 260.353 Q2258.04 257.668 2258.04 252.969 Q2258.04 248.27 2256.1 245.608 Q2254.15 242.923 2250.77 242.923 Q2247.39 242.923 2245.45 245.608 Q2243.53 248.27 2243.53 252.969 Z" fill="#000000" fill-rule="nonzero" fill-opacity="1" /></svg>
