<?xml version="1.0" encoding="utf-8"?>
<svg xmlns="http://www.w3.org/2000/svg" xmlns:xlink="http://www.w3.org/1999/xlink" width="600" height="400" viewBox="0 0 2400 1600">
<defs>
  <clipPath id="clip360">
    <rect x="0" y="0" width="2400" height="1600"/>
  </clipPath>
</defs>
<path clip-path="url(#clip360)" d="M0 1600 L2400 1600 L2400 0 L0 0  Z" fill="#ffffff" fill-rule="evenodd" fill-opacity="1"/>
<defs>
  <clipPath id="clip361">
    <rect x="480" y="0" width="1681" height="1600"/>
  </clipPath>
</defs>
<path clip-path="url(#clip360)" d="M257.69 1423.18 L2352.76 1423.18 L2352.76 47.2441 L257.69 47.2441  Z" fill="#ffffff" fill-rule="evenodd" fill-opacity="1"/>
<defs>
  <clipPath id="clip362">
    <rect x="257" y="47" width="2096" height="1377"/>
  </clipPath>
</defs>
<polyline clip-path="url(#clip362)" style="stroke:#000000; stroke-linecap:round; stroke-linejoin:round; stroke-width:2; stroke-opacity:0.1; fill:none" points="276.648,1423.18 276.648,47.2441 "/>
<polyline clip-path="url(#clip362)" style="stroke:#000000; stroke-linecap:round; stroke-linejoin:round; stroke-width:2; stroke-opacity:0.1; fill:none" points="680.011,1423.18 680.011,47.2441 "/>
<polyline clip-path="url(#clip362)" style="stroke:#000000; stroke-linecap:round; stroke-linejoin:round; stroke-width:2; stroke-opacity:0.1; fill:none" points="1083.37,1423.18 1083.37,47.2441 "/>
<polyline clip-path="url(#clip362)" style="stroke:#000000; stroke-linecap:round; stroke-linejoin:round; stroke-width:2; stroke-opacity:0.1; fill:none" points="1486.74,1423.18 1486.74,47.2441 "/>
<polyline clip-path="url(#clip362)" style="stroke:#000000; stroke-linecap:round; stroke-linejoin:round; stroke-width:2; stroke-opacity:0.1; fill:none" points="1890.1,1423.18 1890.1,47.2441 "/>
<polyline clip-path="url(#clip362)" style="stroke:#000000; stroke-linecap:round; stroke-linejoin:round; stroke-width:2; stroke-opacity:0.1; fill:none" points="2293.46,1423.18 2293.46,47.2441 "/>
<polyline clip-path="url(#clip360)" style="stroke:#000000; stroke-linecap:round; stroke-linejoin:round; stroke-width:4; stroke-opacity:1; fill:none" points="257.69,1423.18 2352.76,1423.18 "/>
<polyline clip-path="url(#clip360)" style="stroke:#000000; stroke-linecap:round; stroke-linejoin:round; stroke-width:4; stroke-opacity:1; fill:none" points="276.648,1423.18 276.648,1404.28 "/>
<polyline clip-path="url(#clip360)" style="stroke:#000000; stroke-linecap:round; stroke-linejoin:round; stroke-width:4; stroke-opacity:1; fill:none" points="680.011,1423.18 680.011,1404.28 "/>
<polyline clip-path="url(#clip360)" style="stroke:#000000; stroke-linecap:round; stroke-linejoin:round; stroke-width:4; stroke-opacity:1; fill:none" points="1083.37,1423.18 1083.37,1404.28 "/>
<polyline clip-path="url(#clip360)" style="stroke:#000000; stroke-linecap:round; stroke-linejoin:round; stroke-width:4; stroke-opacity:1; fill:none" points="1486.74,1423.18 1486.74,1404.28 "/>
<polyline clip-path="url(#clip360)" style="stroke:#000000; stroke-linecap:round; stroke-linejoin:round; stroke-width:4; stroke-opacity:1; fill:none" points="1890.1,1423.18 1890.1,1404.28 "/>
<polyline clip-path="url(#clip360)" style="stroke:#000000; stroke-linecap:round; stroke-linejoin:round; stroke-width:4; stroke-opacity:1; fill:none" points="2293.46,1423.18 2293.46,1404.28 "/>
<path clip-path="url(#clip360)" d="M276.648 1454.1 Q273.037 1454.1 271.208 1457.66 Q269.403 1461.2 269.403 1468.33 Q269.403 1475.44 271.208 1479.01 Q273.037 1482.55 276.648 1482.55 Q280.282 1482.55 282.088 1479.01 Q283.917 1475.44 283.917 1468.33 Q283.917 1461.2 282.088 1457.66 Q280.282 1454.1 276.648 1454.1 M276.648 1450.39 Q282.458 1450.39 285.514 1455 Q288.593 1459.58 288.593 1468.33 Q288.593 1477.06 285.514 1481.67 Q282.458 1486.25 276.648 1486.25 Q270.838 1486.25 267.759 1481.67 Q264.704 1477.06 264.704 1468.33 Q264.704 1459.58 267.759 1455 Q270.838 1450.39 276.648 1450.39 Z" fill="#000000" fill-rule="nonzero" fill-opacity="1" /><path clip-path="url(#clip360)" d="M654.699 1481.64 L662.337 1481.64 L662.337 1455.28 L654.027 1456.95 L654.027 1452.69 L662.291 1451.02 L666.967 1451.02 L666.967 1481.64 L674.606 1481.64 L674.606 1485.58 L654.699 1485.58 L654.699 1481.64 Z" fill="#000000" fill-rule="nonzero" fill-opacity="1" /><path clip-path="url(#clip360)" d="M694.05 1454.1 Q690.439 1454.1 688.61 1457.66 Q686.805 1461.2 686.805 1468.33 Q686.805 1475.44 688.61 1479.01 Q690.439 1482.55 694.05 1482.55 Q697.684 1482.55 699.49 1479.01 Q701.319 1475.44 701.319 1468.33 Q701.319 1461.2 699.49 1457.66 Q697.684 1454.1 694.05 1454.1 M694.05 1450.39 Q699.86 1450.39 702.916 1455 Q705.995 1459.58 705.995 1468.33 Q705.995 1477.06 702.916 1481.67 Q699.86 1486.25 694.05 1486.25 Q688.24 1486.25 685.161 1481.67 Q682.106 1477.06 682.106 1468.33 Q682.106 1459.58 685.161 1455 Q688.24 1450.39 694.05 1450.39 Z" fill="#000000" fill-rule="nonzero" fill-opacity="1" /><path clip-path="url(#clip360)" d="M1062.15 1481.64 L1078.47 1481.64 L1078.47 1485.58 L1056.52 1485.58 L1056.52 1481.64 Q1059.18 1478.89 1063.77 1474.26 Q1068.37 1469.61 1069.55 1468.27 Q1071.8 1465.74 1072.68 1464.01 Q1073.58 1462.25 1073.58 1460.56 Q1073.58 1457.8 1071.64 1456.07 Q1069.72 1454.33 1066.61 1454.33 Q1064.42 1454.33 1061.96 1455.09 Q1059.53 1455.86 1056.75 1457.41 L1056.75 1452.69 Q1059.58 1451.55 1062.03 1450.97 Q1064.48 1450.39 1066.52 1450.39 Q1071.89 1450.39 1075.09 1453.08 Q1078.28 1455.77 1078.28 1460.26 Q1078.28 1462.39 1077.47 1464.31 Q1076.68 1466.2 1074.58 1468.8 Q1074 1469.47 1070.9 1472.69 Q1067.79 1475.88 1062.15 1481.64 Z" fill="#000000" fill-rule="nonzero" fill-opacity="1" /><path clip-path="url(#clip360)" d="M1098.28 1454.1 Q1094.67 1454.1 1092.84 1457.66 Q1091.04 1461.2 1091.04 1468.33 Q1091.04 1475.44 1092.84 1479.01 Q1094.67 1482.55 1098.28 1482.55 Q1101.92 1482.55 1103.72 1479.01 Q1105.55 1475.44 1105.55 1468.33 Q1105.55 1461.2 1103.72 1457.66 Q1101.92 1454.1 1098.28 1454.1 M1098.28 1450.39 Q1104.09 1450.39 1107.15 1455 Q1110.23 1459.58 1110.23 1468.33 Q1110.23 1477.06 1107.15 1481.67 Q1104.09 1486.25 1098.28 1486.25 Q1092.47 1486.25 1089.39 1481.67 Q1086.34 1477.06 1086.34 1468.33 Q1086.34 1459.58 1089.39 1455 Q1092.47 1450.39 1098.28 1450.39 Z" fill="#000000" fill-rule="nonzero" fill-opacity="1" /><path clip-path="url(#clip360)" d="M1475.58 1466.95 Q1478.94 1467.66 1480.81 1469.93 Q1482.71 1472.2 1482.71 1475.53 Q1482.71 1480.65 1479.19 1483.45 Q1475.67 1486.25 1469.19 1486.25 Q1467.01 1486.25 1464.7 1485.81 Q1462.41 1485.39 1459.95 1484.54 L1459.95 1480.02 Q1461.9 1481.16 1464.21 1481.74 Q1466.53 1482.32 1469.05 1482.32 Q1473.45 1482.32 1475.74 1480.58 Q1478.06 1478.84 1478.06 1475.53 Q1478.06 1472.48 1475.9 1470.77 Q1473.77 1469.03 1469.95 1469.03 L1465.93 1469.03 L1465.93 1465.19 L1470.14 1465.19 Q1473.59 1465.19 1475.42 1463.82 Q1477.25 1462.43 1477.25 1459.84 Q1477.25 1457.18 1475.35 1455.77 Q1473.47 1454.33 1469.95 1454.33 Q1468.03 1454.33 1465.83 1454.75 Q1463.63 1455.16 1461 1456.04 L1461 1451.88 Q1463.66 1451.14 1465.97 1450.77 Q1468.31 1450.39 1470.37 1450.39 Q1475.69 1450.39 1478.8 1452.83 Q1481.9 1455.23 1481.9 1459.35 Q1481.9 1462.22 1480.25 1464.21 Q1478.61 1466.18 1475.58 1466.95 Z" fill="#000000" fill-rule="nonzero" fill-opacity="1" /><path clip-path="url(#clip360)" d="M1501.57 1454.1 Q1497.96 1454.1 1496.13 1457.66 Q1494.33 1461.2 1494.33 1468.33 Q1494.33 1475.44 1496.13 1479.01 Q1497.96 1482.55 1501.57 1482.55 Q1505.21 1482.55 1507.01 1479.01 Q1508.84 1475.44 1508.84 1468.33 Q1508.84 1461.2 1507.01 1457.66 Q1505.21 1454.1 1501.57 1454.1 M1501.57 1450.39 Q1507.38 1450.39 1510.44 1455 Q1513.52 1459.58 1513.52 1468.33 Q1513.52 1477.06 1510.44 1481.67 Q1507.38 1486.25 1501.57 1486.25 Q1495.76 1486.25 1492.69 1481.67 Q1489.63 1477.06 1489.63 1468.33 Q1489.63 1459.58 1492.69 1455 Q1495.76 1450.39 1501.57 1450.39 Z" fill="#000000" fill-rule="nonzero" fill-opacity="1" /><path clip-path="url(#clip360)" d="M1878.27 1455.09 L1866.46 1473.54 L1878.27 1473.54 L1878.27 1455.09 M1877.04 1451.02 L1882.92 1451.02 L1882.92 1473.54 L1887.85 1473.54 L1887.85 1477.43 L1882.92 1477.43 L1882.92 1485.58 L1878.27 1485.58 L1878.27 1477.43 L1862.67 1477.43 L1862.67 1472.92 L1877.04 1451.02 Z" fill="#000000" fill-rule="nonzero" fill-opacity="1" /><path clip-path="url(#clip360)" d="M1905.58 1454.1 Q1901.97 1454.1 1900.15 1457.66 Q1898.34 1461.2 1898.34 1468.33 Q1898.34 1475.44 1900.15 1479.01 Q1901.97 1482.55 1905.58 1482.55 Q1909.22 1482.55 1911.02 1479.01 Q1912.85 1475.44 1912.85 1468.33 Q1912.85 1461.2 1911.02 1457.66 Q1909.22 1454.1 1905.58 1454.1 M1905.58 1450.39 Q1911.4 1450.39 1914.45 1455 Q1917.53 1459.58 1917.53 1468.33 Q1917.53 1477.06 1914.45 1481.67 Q1911.4 1486.25 1905.58 1486.25 Q1899.77 1486.25 1896.7 1481.67 Q1893.64 1477.06 1893.64 1468.33 Q1893.64 1459.58 1896.7 1455 Q1899.77 1450.39 1905.58 1450.39 Z" fill="#000000" fill-rule="nonzero" fill-opacity="1" /><path clip-path="url(#clip360)" d="M2268.16 1451.02 L2286.52 1451.02 L2286.52 1454.96 L2272.44 1454.96 L2272.44 1463.43 Q2273.46 1463.08 2274.48 1462.92 Q2275.5 1462.73 2276.52 1462.73 Q2282.3 1462.73 2285.68 1465.9 Q2289.06 1469.08 2289.06 1474.49 Q2289.06 1480.07 2285.59 1483.17 Q2282.12 1486.25 2275.8 1486.25 Q2273.62 1486.25 2271.36 1485.88 Q2269.11 1485.51 2266.7 1484.77 L2266.7 1480.07 Q2268.79 1481.2 2271.01 1481.76 Q2273.23 1482.32 2275.71 1482.32 Q2279.71 1482.32 2282.05 1480.21 Q2284.39 1478.1 2284.39 1474.49 Q2284.39 1470.88 2282.05 1468.77 Q2279.71 1466.67 2275.71 1466.67 Q2273.83 1466.67 2271.96 1467.08 Q2270.11 1467.5 2268.16 1468.38 L2268.16 1451.02 Z" fill="#000000" fill-rule="nonzero" fill-opacity="1" /><path clip-path="url(#clip360)" d="M2308.28 1454.1 Q2304.67 1454.1 2302.84 1457.66 Q2301.03 1461.2 2301.03 1468.33 Q2301.03 1475.44 2302.84 1479.01 Q2304.67 1482.55 2308.28 1482.55 Q2311.91 1482.55 2313.72 1479.01 Q2315.54 1475.44 2315.54 1468.33 Q2315.54 1461.2 2313.72 1457.66 Q2311.91 1454.1 2308.28 1454.1 M2308.28 1450.39 Q2314.09 1450.39 2317.14 1455 Q2320.22 1459.58 2320.22 1468.33 Q2320.22 1477.06 2317.14 1481.67 Q2314.09 1486.25 2308.28 1486.25 Q2302.47 1486.25 2299.39 1481.67 Q2296.33 1477.06 2296.33 1468.33 Q2296.33 1459.58 2299.39 1455 Q2302.47 1450.39 2308.28 1450.39 Z" fill="#000000" fill-rule="nonzero" fill-opacity="1" /><path clip-path="url(#clip360)" d="M1253.01 1532.4 L1258.86 1532.4 L1258.86 1568.04 L1253.01 1568.04 L1253.01 1532.4 M1253.01 1518.52 L1258.86 1518.52 L1258.86 1525.93 L1253.01 1525.93 L1253.01 1518.52 Z" fill="#000000" fill-rule="nonzero" fill-opacity="1" /><path clip-path="url(#clip360)" d="M1276.91 1522.27 L1276.91 1532.4 L1288.97 1532.4 L1288.97 1536.95 L1276.91 1536.95 L1276.91 1556.3 Q1276.91 1560.66 1278.09 1561.9 Q1279.3 1563.14 1282.96 1563.14 L1288.97 1563.14 L1288.97 1568.04 L1282.96 1568.04 Q1276.18 1568.04 1273.6 1565.53 Q1271.02 1562.98 1271.02 1556.3 L1271.02 1536.95 L1266.73 1536.95 L1266.73 1532.4 L1271.02 1532.4 L1271.02 1522.27 L1276.91 1522.27 Z" fill="#000000" fill-rule="nonzero" fill-opacity="1" /><path clip-path="url(#clip360)" d="M1327.17 1548.76 L1327.17 1551.62 L1300.24 1551.62 Q1300.62 1557.67 1303.87 1560.85 Q1307.15 1564 1312.97 1564 Q1316.35 1564 1319.5 1563.17 Q1322.68 1562.35 1325.8 1560.69 L1325.8 1566.23 Q1322.65 1567.57 1319.34 1568.27 Q1316.03 1568.97 1312.62 1568.97 Q1304.09 1568.97 1299.1 1564 Q1294.13 1559.04 1294.13 1550.57 Q1294.13 1541.82 1298.84 1536.69 Q1303.58 1531.54 1311.6 1531.54 Q1318.8 1531.54 1322.97 1536.18 Q1327.17 1540.8 1327.17 1548.76 M1321.31 1547.04 Q1321.25 1542.23 1318.61 1539.37 Q1316 1536.5 1311.67 1536.5 Q1306.77 1536.5 1303.81 1539.27 Q1300.88 1542.04 1300.43 1547.07 L1321.31 1547.04 Z" fill="#000000" fill-rule="nonzero" fill-opacity="1" /><path clip-path="url(#clip360)" d="M1357.44 1537.87 Q1356.45 1537.3 1355.27 1537.04 Q1354.13 1536.76 1352.73 1536.76 Q1347.76 1536.76 1345.09 1540 Q1342.45 1543.22 1342.45 1549.27 L1342.45 1568.04 L1336.56 1568.04 L1336.56 1532.4 L1342.45 1532.4 L1342.45 1537.93 Q1344.29 1534.69 1347.25 1533.13 Q1350.21 1531.54 1354.45 1531.54 Q1355.05 1531.54 1355.78 1531.63 Q1356.51 1531.7 1357.41 1531.85 L1357.44 1537.87 Z" fill="#000000" fill-rule="nonzero" fill-opacity="1" /><polyline clip-path="url(#clip362)" style="stroke:#000000; stroke-linecap:round; stroke-linejoin:round; stroke-width:2; stroke-opacity:0.1; fill:none" points="257.69,1324.36 2352.76,1324.36 "/>
<polyline clip-path="url(#clip362)" style="stroke:#000000; stroke-linecap:round; stroke-linejoin:round; stroke-width:2; stroke-opacity:0.1; fill:none" points="257.69,1130.37 2352.76,1130.37 "/>
<polyline clip-path="url(#clip362)" style="stroke:#000000; stroke-linecap:round; stroke-linejoin:round; stroke-width:2; stroke-opacity:0.1; fill:none" points="257.69,936.378 2352.76,936.378 "/>
<polyline clip-path="url(#clip362)" style="stroke:#000000; stroke-linecap:round; stroke-linejoin:round; stroke-width:2; stroke-opacity:0.1; fill:none" points="257.69,742.387 2352.76,742.387 "/>
<polyline clip-path="url(#clip362)" style="stroke:#000000; stroke-linecap:round; stroke-linejoin:round; stroke-width:2; stroke-opacity:0.1; fill:none" points="257.69,548.397 2352.76,548.397 "/>
<polyline clip-path="url(#clip362)" style="stroke:#000000; stroke-linecap:round; stroke-linejoin:round; stroke-width:2; stroke-opacity:0.1; fill:none" points="257.69,354.406 2352.76,354.406 "/>
<polyline clip-path="url(#clip362)" style="stroke:#000000; stroke-linecap:round; stroke-linejoin:round; stroke-width:2; stroke-opacity:0.1; fill:none" points="257.69,160.416 2352.76,160.416 "/>
<polyline clip-path="url(#clip360)" style="stroke:#000000; stroke-linecap:round; stroke-linejoin:round; stroke-width:4; stroke-opacity:1; fill:none" points="257.69,1423.18 257.69,47.2441 "/>
<polyline clip-path="url(#clip360)" style="stroke:#000000; stroke-linecap:round; stroke-linejoin:round; stroke-width:4; stroke-opacity:1; fill:none" points="257.69,1324.36 276.588,1324.36 "/>
<polyline clip-path="url(#clip360)" style="stroke:#000000; stroke-linecap:round; stroke-linejoin:round; stroke-width:4; stroke-opacity:1; fill:none" points="257.69,1130.37 276.588,1130.37 "/>
<polyline clip-path="url(#clip360)" style="stroke:#000000; stroke-linecap:round; stroke-linejoin:round; stroke-width:4; stroke-opacity:1; fill:none" points="257.69,936.378 276.588,936.378 "/>
<polyline clip-path="url(#clip360)" style="stroke:#000000; stroke-linecap:round; stroke-linejoin:round; stroke-width:4; stroke-opacity:1; fill:none" points="257.69,742.387 276.588,742.387 "/>
<polyline clip-path="url(#clip360)" style="stroke:#000000; stroke-linecap:round; stroke-linejoin:round; stroke-width:4; stroke-opacity:1; fill:none" points="257.69,548.397 276.588,548.397 "/>
<polyline clip-path="url(#clip360)" style="stroke:#000000; stroke-linecap:round; stroke-linejoin:round; stroke-width:4; stroke-opacity:1; fill:none" points="257.69,354.406 276.588,354.406 "/>
<polyline clip-path="url(#clip360)" style="stroke:#000000; stroke-linecap:round; stroke-linejoin:round; stroke-width:4; stroke-opacity:1; fill:none" points="257.69,160.416 276.588,160.416 "/>
<path clip-path="url(#clip360)" d="M114.746 1324.81 L144.422 1324.81 L144.422 1328.75 L114.746 1328.75 L114.746 1324.81 Z" fill="#000000" fill-rule="nonzero" fill-opacity="1" /><path clip-path="url(#clip360)" d="M155.325 1337.7 L162.964 1337.7 L162.964 1311.34 L154.653 1313.01 L154.653 1308.75 L162.917 1307.08 L167.593 1307.08 L167.593 1337.7 L175.232 1337.7 L175.232 1341.64 L155.325 1341.64 L155.325 1337.7 Z" fill="#000000" fill-rule="nonzero" fill-opacity="1" /><path clip-path="url(#clip360)" d="M184.676 1335.76 L189.561 1335.76 L189.561 1341.64 L184.676 1341.64 L184.676 1335.76 Z" fill="#000000" fill-rule="nonzero" fill-opacity="1" /><path clip-path="url(#clip360)" d="M209.746 1310.16 Q206.135 1310.16 204.306 1313.72 Q202.5 1317.26 202.5 1324.39 Q202.5 1331.5 204.306 1335.07 Q206.135 1338.61 209.746 1338.61 Q213.38 1338.61 215.186 1335.07 Q217.014 1331.5 217.014 1324.39 Q217.014 1317.26 215.186 1313.72 Q213.38 1310.16 209.746 1310.16 M209.746 1306.45 Q215.556 1306.45 218.611 1311.06 Q221.69 1315.64 221.69 1324.39 Q221.69 1333.12 218.611 1337.73 Q215.556 1342.31 209.746 1342.31 Q203.936 1342.31 200.857 1337.73 Q197.801 1333.12 197.801 1324.39 Q197.801 1315.64 200.857 1311.06 Q203.936 1306.45 209.746 1306.45 Z" fill="#000000" fill-rule="nonzero" fill-opacity="1" /><path clip-path="url(#clip360)" d="M114.931 1130.82 L144.607 1130.82 L144.607 1134.76 L114.931 1134.76 L114.931 1130.82 Z" fill="#000000" fill-rule="nonzero" fill-opacity="1" /><path clip-path="url(#clip360)" d="M164.7 1116.17 Q161.089 1116.17 159.26 1119.73 Q157.454 1123.27 157.454 1130.4 Q157.454 1137.51 159.26 1141.07 Q161.089 1144.62 164.7 1144.62 Q168.334 1144.62 170.139 1141.07 Q171.968 1137.51 171.968 1130.4 Q171.968 1123.27 170.139 1119.73 Q168.334 1116.17 164.7 1116.17 M164.7 1112.46 Q170.51 1112.46 173.565 1117.07 Q176.644 1121.65 176.644 1130.4 Q176.644 1139.13 173.565 1143.74 Q170.51 1148.32 164.7 1148.32 Q158.89 1148.32 155.811 1143.74 Q152.755 1139.13 152.755 1130.4 Q152.755 1121.65 155.811 1117.07 Q158.89 1112.46 164.7 1112.46 Z" fill="#000000" fill-rule="nonzero" fill-opacity="1" /><path clip-path="url(#clip360)" d="M184.862 1141.77 L189.746 1141.77 L189.746 1147.65 L184.862 1147.65 L184.862 1141.77 Z" fill="#000000" fill-rule="nonzero" fill-opacity="1" /><path clip-path="url(#clip360)" d="M200.07 1146.93 L200.07 1142.67 Q201.829 1143.51 203.635 1143.94 Q205.44 1144.38 207.176 1144.38 Q211.806 1144.38 214.236 1141.28 Q216.69 1138.16 217.037 1131.82 Q215.695 1133.81 213.635 1134.87 Q211.574 1135.94 209.074 1135.94 Q203.889 1135.94 200.857 1132.81 Q197.848 1129.66 197.848 1124.22 Q197.848 1118.9 200.996 1115.68 Q204.144 1112.46 209.375 1112.46 Q215.371 1112.46 218.519 1117.07 Q221.69 1121.65 221.69 1130.4 Q221.69 1138.57 217.801 1143.46 Q213.936 1148.32 207.385 1148.32 Q205.625 1148.32 203.82 1147.97 Q202.014 1147.63 200.07 1146.93 M209.375 1132.28 Q212.524 1132.28 214.352 1130.13 Q216.204 1127.97 216.204 1124.22 Q216.204 1120.5 214.352 1118.34 Q212.524 1116.17 209.375 1116.17 Q206.227 1116.17 204.375 1118.34 Q202.547 1120.5 202.547 1124.22 Q202.547 1127.97 204.375 1130.13 Q206.227 1132.28 209.375 1132.28 Z" fill="#000000" fill-rule="nonzero" fill-opacity="1" /><path clip-path="url(#clip360)" d="M114.839 936.829 L144.515 936.829 L144.515 940.765 L114.839 940.765 L114.839 936.829 Z" fill="#000000" fill-rule="nonzero" fill-opacity="1" /><path clip-path="url(#clip360)" d="M164.607 922.177 Q160.996 922.177 159.167 925.742 Q157.362 929.283 157.362 936.413 Q157.362 943.519 159.167 947.084 Q160.996 950.626 164.607 950.626 Q168.241 950.626 170.047 947.084 Q171.876 943.519 171.876 936.413 Q171.876 929.283 170.047 925.742 Q168.241 922.177 164.607 922.177 M164.607 918.473 Q170.417 918.473 173.473 923.08 Q176.551 927.663 176.551 936.413 Q176.551 945.14 173.473 949.746 Q170.417 954.329 164.607 954.329 Q158.797 954.329 155.718 949.746 Q152.663 945.14 152.663 936.413 Q152.663 927.663 155.718 923.08 Q158.797 918.473 164.607 918.473 Z" fill="#000000" fill-rule="nonzero" fill-opacity="1" /><path clip-path="url(#clip360)" d="M184.769 947.778 L189.653 947.778 L189.653 953.658 L184.769 953.658 L184.769 947.778 Z" fill="#000000" fill-rule="nonzero" fill-opacity="1" /><path clip-path="url(#clip360)" d="M209.838 937.246 Q206.505 937.246 204.584 939.028 Q202.686 940.811 202.686 943.936 Q202.686 947.061 204.584 948.843 Q206.505 950.626 209.838 950.626 Q213.172 950.626 215.093 948.843 Q217.014 947.038 217.014 943.936 Q217.014 940.811 215.093 939.028 Q213.195 937.246 209.838 937.246 M205.162 935.255 Q202.153 934.515 200.463 932.454 Q198.797 930.394 198.797 927.431 Q198.797 923.288 201.737 920.88 Q204.699 918.473 209.838 918.473 Q215 918.473 217.94 920.88 Q220.88 923.288 220.88 927.431 Q220.88 930.394 219.19 932.454 Q217.523 934.515 214.537 935.255 Q217.917 936.042 219.792 938.334 Q221.69 940.626 221.69 943.936 Q221.69 948.959 218.611 951.644 Q215.556 954.329 209.838 954.329 Q204.121 954.329 201.042 951.644 Q197.987 948.959 197.987 943.936 Q197.987 940.626 199.885 938.334 Q201.783 936.042 205.162 935.255 M203.449 927.871 Q203.449 930.556 205.116 932.061 Q206.806 933.566 209.838 933.566 Q212.848 933.566 214.537 932.061 Q216.25 930.556 216.25 927.871 Q216.25 925.186 214.537 923.681 Q212.848 922.177 209.838 922.177 Q206.806 922.177 205.116 923.681 Q203.449 925.186 203.449 927.871 Z" fill="#000000" fill-rule="nonzero" fill-opacity="1" /><path clip-path="url(#clip360)" d="M115.649 742.839 L145.325 742.839 L145.325 746.774 L115.649 746.774 L115.649 742.839 Z" fill="#000000" fill-rule="nonzero" fill-opacity="1" /><path clip-path="url(#clip360)" d="M165.417 728.186 Q161.806 728.186 159.978 731.751 Q158.172 735.293 158.172 742.422 Q158.172 749.529 159.978 753.093 Q161.806 756.635 165.417 756.635 Q169.052 756.635 170.857 753.093 Q172.686 749.529 172.686 742.422 Q172.686 735.293 170.857 731.751 Q169.052 728.186 165.417 728.186 M165.417 724.482 Q171.227 724.482 174.283 729.089 Q177.362 733.672 177.362 742.422 Q177.362 751.149 174.283 755.755 Q171.227 760.339 165.417 760.339 Q159.607 760.339 156.528 755.755 Q153.473 751.149 153.473 742.422 Q153.473 733.672 156.528 729.089 Q159.607 724.482 165.417 724.482 Z" fill="#000000" fill-rule="nonzero" fill-opacity="1" /><path clip-path="url(#clip360)" d="M185.579 753.788 L190.463 753.788 L190.463 759.667 L185.579 759.667 L185.579 753.788 Z" fill="#000000" fill-rule="nonzero" fill-opacity="1" /><path clip-path="url(#clip360)" d="M199.468 725.107 L221.69 725.107 L221.69 727.098 L209.144 759.667 L204.26 759.667 L216.065 729.043 L199.468 729.043 L199.468 725.107 Z" fill="#000000" fill-rule="nonzero" fill-opacity="1" /><path clip-path="url(#clip360)" d="M114.584 548.848 L144.26 548.848 L144.26 552.783 L114.584 552.783 L114.584 548.848 Z" fill="#000000" fill-rule="nonzero" fill-opacity="1" /><path clip-path="url(#clip360)" d="M164.352 534.196 Q160.741 534.196 158.913 537.76 Q157.107 541.302 157.107 548.432 Q157.107 555.538 158.913 559.103 Q160.741 562.645 164.352 562.645 Q167.987 562.645 169.792 559.103 Q171.621 555.538 171.621 548.432 Q171.621 541.302 169.792 537.76 Q167.987 534.196 164.352 534.196 M164.352 530.492 Q170.163 530.492 173.218 535.098 Q176.297 539.682 176.297 548.432 Q176.297 557.158 173.218 561.765 Q170.163 566.348 164.352 566.348 Q158.542 566.348 155.464 561.765 Q152.408 557.158 152.408 548.432 Q152.408 539.682 155.464 535.098 Q158.542 530.492 164.352 530.492 Z" fill="#000000" fill-rule="nonzero" fill-opacity="1" /><path clip-path="url(#clip360)" d="M184.514 559.797 L189.399 559.797 L189.399 565.677 L184.514 565.677 L184.514 559.797 Z" fill="#000000" fill-rule="nonzero" fill-opacity="1" /><path clip-path="url(#clip360)" d="M210.162 546.534 Q207.014 546.534 205.162 548.686 Q203.334 550.839 203.334 554.589 Q203.334 558.316 205.162 560.492 Q207.014 562.645 210.162 562.645 Q213.311 562.645 215.139 560.492 Q216.991 558.316 216.991 554.589 Q216.991 550.839 215.139 548.686 Q213.311 546.534 210.162 546.534 M219.445 531.881 L219.445 536.14 Q217.686 535.307 215.88 534.867 Q214.098 534.427 212.338 534.427 Q207.709 534.427 205.255 537.552 Q202.824 540.677 202.477 546.996 Q203.843 544.983 205.903 543.918 Q207.963 542.83 210.44 542.83 Q215.649 542.83 218.658 546.001 Q221.69 549.149 221.69 554.589 Q221.69 559.913 218.542 563.131 Q215.394 566.348 210.162 566.348 Q204.167 566.348 200.996 561.765 Q197.825 557.158 197.825 548.432 Q197.825 540.237 201.713 535.376 Q205.602 530.492 212.153 530.492 Q213.912 530.492 215.695 530.839 Q217.5 531.186 219.445 531.881 Z" fill="#000000" fill-rule="nonzero" fill-opacity="1" /><path clip-path="url(#clip360)" d="M115.742 354.858 L145.417 354.858 L145.417 358.793 L115.742 358.793 L115.742 354.858 Z" fill="#000000" fill-rule="nonzero" fill-opacity="1" /><path clip-path="url(#clip360)" d="M165.51 340.205 Q161.899 340.205 160.07 343.77 Q158.265 347.311 158.265 354.441 Q158.265 361.548 160.07 365.112 Q161.899 368.654 165.51 368.654 Q169.144 368.654 170.95 365.112 Q172.778 361.548 172.778 354.441 Q172.778 347.311 170.95 343.77 Q169.144 340.205 165.51 340.205 M165.51 336.501 Q171.32 336.501 174.376 341.108 Q177.454 345.691 177.454 354.441 Q177.454 363.168 174.376 367.774 Q171.32 372.358 165.51 372.358 Q159.7 372.358 156.621 367.774 Q153.566 363.168 153.566 354.441 Q153.566 345.691 156.621 341.108 Q159.7 336.501 165.51 336.501 Z" fill="#000000" fill-rule="nonzero" fill-opacity="1" /><path clip-path="url(#clip360)" d="M185.672 365.807 L190.556 365.807 L190.556 371.686 L185.672 371.686 L185.672 365.807 Z" fill="#000000" fill-rule="nonzero" fill-opacity="1" /><path clip-path="url(#clip360)" d="M200.787 337.126 L219.144 337.126 L219.144 341.062 L205.07 341.062 L205.07 349.534 Q206.088 349.186 207.107 349.024 Q208.125 348.839 209.144 348.839 Q214.931 348.839 218.311 352.011 Q221.69 355.182 221.69 360.598 Q221.69 366.177 218.218 369.279 Q214.746 372.358 208.426 372.358 Q206.25 372.358 203.982 371.987 Q201.737 371.617 199.329 370.876 L199.329 366.177 Q201.412 367.311 203.635 367.867 Q205.857 368.422 208.334 368.422 Q212.338 368.422 214.676 366.316 Q217.014 364.21 217.014 360.598 Q217.014 356.987 214.676 354.881 Q212.338 352.774 208.334 352.774 Q206.459 352.774 204.584 353.191 Q202.732 353.608 200.787 354.487 L200.787 337.126 Z" fill="#000000" fill-rule="nonzero" fill-opacity="1" /><path clip-path="url(#clip360)" d="M114.26 160.867 L143.936 160.867 L143.936 164.802 L114.26 164.802 L114.26 160.867 Z" fill="#000000" fill-rule="nonzero" fill-opacity="1" /><path clip-path="url(#clip360)" d="M164.028 146.214 Q160.417 146.214 158.589 149.779 Q156.783 153.321 156.783 160.451 Q156.783 167.557 158.589 171.122 Q160.417 174.663 164.028 174.663 Q167.663 174.663 169.468 171.122 Q171.297 167.557 171.297 160.451 Q171.297 153.321 169.468 149.779 Q167.663 146.214 164.028 146.214 M164.028 142.511 Q169.839 142.511 172.894 147.117 Q175.973 151.701 175.973 160.451 Q175.973 169.177 172.894 173.784 Q169.839 178.367 164.028 178.367 Q158.218 178.367 155.14 173.784 Q152.084 169.177 152.084 160.451 Q152.084 151.701 155.14 147.117 Q158.218 142.511 164.028 142.511 Z" fill="#000000" fill-rule="nonzero" fill-opacity="1" /><path clip-path="url(#clip360)" d="M184.19 171.816 L189.075 171.816 L189.075 177.696 L184.19 177.696 L184.19 171.816 Z" fill="#000000" fill-rule="nonzero" fill-opacity="1" /><path clip-path="url(#clip360)" d="M212.107 147.21 L200.301 165.659 L212.107 165.659 L212.107 147.21 M210.88 143.136 L216.76 143.136 L216.76 165.659 L221.69 165.659 L221.69 169.548 L216.76 169.548 L216.76 177.696 L212.107 177.696 L212.107 169.548 L196.505 169.548 L196.505 165.034 L210.88 143.136 Z" fill="#000000" fill-rule="nonzero" fill-opacity="1" /><path clip-path="url(#clip360)" d="M31.921 766.627 L43.6021 799.474 L55.2195 766.627 L61.0123 766.627 L46.212 807.431 L40.9285 807.431 L26.1282 766.627 L31.921 766.627 Z" fill="#000000" fill-rule="nonzero" fill-opacity="1" /><path clip-path="url(#clip360)" d="M16.4842 753.322 L16.4842 746.893 L35.9632 746.893 L35.9632 723.531 L16.4842 723.531 L16.4842 717.102 L64.0042 717.102 L64.0042 723.531 L41.3741 723.531 L41.3741 746.893 L64.0042 746.893 L64.0042 753.322 L16.4842 753.322 Z" fill="#000000" fill-rule="nonzero" fill-opacity="1" /><path clip-path="url(#clip360)" d="M31.921 703.797 L26.1282 703.797 L40.9285 662.993 L46.212 662.993 L61.0123 703.797 L55.2195 703.797 L43.6021 671.014 L31.921 703.797 Z" fill="#000000" fill-rule="nonzero" fill-opacity="1" /><polyline clip-path="url(#clip362)" style="stroke:#009af9; stroke-linecap:round; stroke-linejoin:round; stroke-width:4; stroke-opacity:1; fill:none" points="-1837.38,1384.24 4447.82,1384.24 "/>
<circle clip-path="url(#clip362)" cx="316.984" cy="86.1857" r="14.4" fill="#e26f46" fill-rule="evenodd" fill-opacity="1" stroke="#000000" stroke-opacity="1" stroke-width="3.2"/>
<circle clip-path="url(#clip362)" cx="357.321" cy="417.117" r="14.4" fill="#e26f46" fill-rule="evenodd" fill-opacity="1" stroke="#000000" stroke-opacity="1" stroke-width="3.2"/>
<circle clip-path="url(#clip362)" cx="397.657" cy="657.404" r="14.4" fill="#e26f46" fill-rule="evenodd" fill-opacity="1" stroke="#000000" stroke-opacity="1" stroke-width="3.2"/>
<circle clip-path="url(#clip362)" cx="437.993" cy="830.912" r="14.4" fill="#e26f46" fill-rule="evenodd" fill-opacity="1" stroke="#000000" stroke-opacity="1" stroke-width="3.2"/>
<circle clip-path="url(#clip362)" cx="478.33" cy="959.047" r="14.4" fill="#e26f46" fill-rule="evenodd" fill-opacity="1" stroke="#000000" stroke-opacity="1" stroke-width="3.2"/>
<circle clip-path="url(#clip362)" cx="518.666" cy="1056.77" r="14.4" fill="#e26f46" fill-rule="evenodd" fill-opacity="1" stroke="#000000" stroke-opacity="1" stroke-width="3.2"/>
<circle clip-path="url(#clip362)" cx="559.002" cy="1133.5" r="14.4" fill="#e26f46" fill-rule="evenodd" fill-opacity="1" stroke="#000000" stroke-opacity="1" stroke-width="3.2"/>
<circle clip-path="url(#clip362)" cx="599.338" cy="1194.44" r="14.4" fill="#e26f46" fill-rule="evenodd" fill-opacity="1" stroke="#000000" stroke-opacity="1" stroke-width="3.2"/>
<circle clip-path="url(#clip362)" cx="639.675" cy="1243.47" r="14.4" fill="#e26f46" fill-rule="evenodd" fill-opacity="1" stroke="#000000" stroke-opacity="1" stroke-width="3.2"/>
<circle clip-path="url(#clip362)" cx="680.011" cy="1282.71" r="14.4" fill="#e26f46" fill-rule="evenodd" fill-opacity="1" stroke="#000000" stroke-opacity="1" stroke-width="3.2"/>
<circle clip-path="url(#clip362)" cx="720.347" cy="1313.41" r="14.4" fill="#e26f46" fill-rule="evenodd" fill-opacity="1" stroke="#000000" stroke-opacity="1" stroke-width="3.2"/>
<circle clip-path="url(#clip362)" cx="760.683" cy="1336.57" r="14.4" fill="#e26f46" fill-rule="evenodd" fill-opacity="1" stroke="#000000" stroke-opacity="1" stroke-width="3.2"/>
<circle clip-path="url(#clip362)" cx="801.02" cy="1353.23" r="14.4" fill="#e26f46" fill-rule="evenodd" fill-opacity="1" stroke="#000000" stroke-opacity="1" stroke-width="3.2"/>
<circle clip-path="url(#clip362)" cx="841.356" cy="1364.65" r="14.4" fill="#e26f46" fill-rule="evenodd" fill-opacity="1" stroke="#000000" stroke-opacity="1" stroke-width="3.2"/>
<circle clip-path="url(#clip362)" cx="881.692" cy="1372.14" r="14.4" fill="#e26f46" fill-rule="evenodd" fill-opacity="1" stroke="#000000" stroke-opacity="1" stroke-width="3.2"/>
<circle clip-path="url(#clip362)" cx="922.028" cy="1376.89" r="14.4" fill="#e26f46" fill-rule="evenodd" fill-opacity="1" stroke="#000000" stroke-opacity="1" stroke-width="3.2"/>
<circle clip-path="url(#clip362)" cx="962.365" cy="1379.82" r="14.4" fill="#e26f46" fill-rule="evenodd" fill-opacity="1" stroke="#000000" stroke-opacity="1" stroke-width="3.2"/>
<circle clip-path="url(#clip362)" cx="1002.7" cy="1381.6" r="14.4" fill="#e26f46" fill-rule="evenodd" fill-opacity="1" stroke="#000000" stroke-opacity="1" stroke-width="3.2"/>
<circle clip-path="url(#clip362)" cx="1043.04" cy="1382.67" r="14.4" fill="#e26f46" fill-rule="evenodd" fill-opacity="1" stroke="#000000" stroke-opacity="1" stroke-width="3.2"/>
<circle clip-path="url(#clip362)" cx="1083.37" cy="1383.31" r="14.4" fill="#e26f46" fill-rule="evenodd" fill-opacity="1" stroke="#000000" stroke-opacity="1" stroke-width="3.2"/>
<circle clip-path="url(#clip362)" cx="1123.71" cy="1383.69" r="14.4" fill="#e26f46" fill-rule="evenodd" fill-opacity="1" stroke="#000000" stroke-opacity="1" stroke-width="3.2"/>
<circle clip-path="url(#clip362)" cx="1164.05" cy="1383.91" r="14.4" fill="#e26f46" fill-rule="evenodd" fill-opacity="1" stroke="#000000" stroke-opacity="1" stroke-width="3.2"/>
<circle clip-path="url(#clip362)" cx="1204.38" cy="1384.04" r="14.4" fill="#e26f46" fill-rule="evenodd" fill-opacity="1" stroke="#000000" stroke-opacity="1" stroke-width="3.2"/>
<circle clip-path="url(#clip362)" cx="1244.72" cy="1384.12" r="14.4" fill="#e26f46" fill-rule="evenodd" fill-opacity="1" stroke="#000000" stroke-opacity="1" stroke-width="3.2"/>
<circle clip-path="url(#clip362)" cx="1285.05" cy="1384.17" r="14.4" fill="#e26f46" fill-rule="evenodd" fill-opacity="1" stroke="#000000" stroke-opacity="1" stroke-width="3.2"/>
<circle clip-path="url(#clip362)" cx="1325.39" cy="1384.2" r="14.4" fill="#e26f46" fill-rule="evenodd" fill-opacity="1" stroke="#000000" stroke-opacity="1" stroke-width="3.2"/>
<circle clip-path="url(#clip362)" cx="1365.73" cy="1384.21" r="14.4" fill="#e26f46" fill-rule="evenodd" fill-opacity="1" stroke="#000000" stroke-opacity="1" stroke-width="3.2"/>
<circle clip-path="url(#clip362)" cx="1406.06" cy="1384.22" r="14.4" fill="#e26f46" fill-rule="evenodd" fill-opacity="1" stroke="#000000" stroke-opacity="1" stroke-width="3.2"/>
<circle clip-path="url(#clip362)" cx="1446.4" cy="1384.23" r="14.4" fill="#e26f46" fill-rule="evenodd" fill-opacity="1" stroke="#000000" stroke-opacity="1" stroke-width="3.2"/>
<circle clip-path="url(#clip362)" cx="1486.74" cy="1384.23" r="14.4" fill="#e26f46" fill-rule="evenodd" fill-opacity="1" stroke="#000000" stroke-opacity="1" stroke-width="3.2"/>
<circle clip-path="url(#clip362)" cx="1527.07" cy="1384.24" r="14.4" fill="#e26f46" fill-rule="evenodd" fill-opacity="1" stroke="#000000" stroke-opacity="1" stroke-width="3.2"/>
<circle clip-path="url(#clip362)" cx="1567.41" cy="1384.24" r="14.4" fill="#e26f46" fill-rule="evenodd" fill-opacity="1" stroke="#000000" stroke-opacity="1" stroke-width="3.2"/>
<circle clip-path="url(#clip362)" cx="1607.75" cy="1384.24" r="14.4" fill="#e26f46" fill-rule="evenodd" fill-opacity="1" stroke="#000000" stroke-opacity="1" stroke-width="3.2"/>
<circle clip-path="url(#clip362)" cx="1648.08" cy="1384.24" r="14.4" fill="#e26f46" fill-rule="evenodd" fill-opacity="1" stroke="#000000" stroke-opacity="1" stroke-width="3.2"/>
<circle clip-path="url(#clip362)" cx="1688.42" cy="1384.24" r="14.4" fill="#e26f46" fill-rule="evenodd" fill-opacity="1" stroke="#000000" stroke-opacity="1" stroke-width="3.2"/>
<circle clip-path="url(#clip362)" cx="1728.75" cy="1384.24" r="14.4" fill="#e26f46" fill-rule="evenodd" fill-opacity="1" stroke="#000000" stroke-opacity="1" stroke-width="3.2"/>
<circle clip-path="url(#clip362)" cx="1769.09" cy="1384.24" r="14.4" fill="#e26f46" fill-rule="evenodd" fill-opacity="1" stroke="#000000" stroke-opacity="1" stroke-width="3.2"/>
<circle clip-path="url(#clip362)" cx="1809.43" cy="1384.24" r="14.4" fill="#e26f46" fill-rule="evenodd" fill-opacity="1" stroke="#000000" stroke-opacity="1" stroke-width="3.2"/>
<circle clip-path="url(#clip362)" cx="1849.76" cy="1384.24" r="14.4" fill="#e26f46" fill-rule="evenodd" fill-opacity="1" stroke="#000000" stroke-opacity="1" stroke-width="3.2"/>
<circle clip-path="url(#clip362)" cx="1890.1" cy="1384.24" r="14.4" fill="#e26f46" fill-rule="evenodd" fill-opacity="1" stroke="#000000" stroke-opacity="1" stroke-width="3.2"/>
<circle clip-path="url(#clip362)" cx="1930.44" cy="1384.24" r="14.4" fill="#e26f46" fill-rule="evenodd" fill-opacity="1" stroke="#000000" stroke-opacity="1" stroke-width="3.2"/>
<circle clip-path="url(#clip362)" cx="1970.77" cy="1384.24" r="14.4" fill="#e26f46" fill-rule="evenodd" fill-opacity="1" stroke="#000000" stroke-opacity="1" stroke-width="3.2"/>
<circle clip-path="url(#clip362)" cx="2011.11" cy="1384.24" r="14.4" fill="#e26f46" fill-rule="evenodd" fill-opacity="1" stroke="#000000" stroke-opacity="1" stroke-width="3.2"/>
<circle clip-path="url(#clip362)" cx="2051.44" cy="1384.24" r="14.4" fill="#e26f46" fill-rule="evenodd" fill-opacity="1" stroke="#000000" stroke-opacity="1" stroke-width="3.2"/>
<circle clip-path="url(#clip362)" cx="2091.78" cy="1384.24" r="14.4" fill="#e26f46" fill-rule="evenodd" fill-opacity="1" stroke="#000000" stroke-opacity="1" stroke-width="3.2"/>
<circle clip-path="url(#clip362)" cx="2132.12" cy="1384.24" r="14.4" fill="#e26f46" fill-rule="evenodd" fill-opacity="1" stroke="#000000" stroke-opacity="1" stroke-width="3.2"/>
<circle clip-path="url(#clip362)" cx="2172.45" cy="1384.24" r="14.4" fill="#e26f46" fill-rule="evenodd" fill-opacity="1" stroke="#000000" stroke-opacity="1" stroke-width="3.2"/>
<circle clip-path="url(#clip362)" cx="2212.79" cy="1384.24" r="14.4" fill="#e26f46" fill-rule="evenodd" fill-opacity="1" stroke="#000000" stroke-opacity="1" stroke-width="3.2"/>
<circle clip-path="url(#clip362)" cx="2253.13" cy="1384.24" r="14.4" fill="#e26f46" fill-rule="evenodd" fill-opacity="1" stroke="#000000" stroke-opacity="1" stroke-width="3.2"/>
<circle clip-path="url(#clip362)" cx="2293.46" cy="1384.24" r="14.4" fill="#e26f46" fill-rule="evenodd" fill-opacity="1" stroke="#000000" stroke-opacity="1" stroke-width="3.2"/>
<path clip-path="url(#clip360)" d="M1594.3 196.789 L2282.92 196.789 L2282.92 93.1086 L1594.3 93.1086  Z" fill="#ffffff" fill-rule="evenodd" fill-opacity="1"/>
<polyline clip-path="url(#clip360)" style="stroke:#000000; stroke-linecap:round; stroke-linejoin:round; stroke-width:4; stroke-opacity:1; fill:none" points="1594.3,196.789 2282.92,196.789 2282.92,93.1086 1594.3,93.1086 1594.3,196.789 "/>
<polyline clip-path="url(#clip360)" style="stroke:#009af9; stroke-linecap:round; stroke-linejoin:round; stroke-width:4; stroke-opacity:1; fill:none" points="1617.57,144.949 1757.25,144.949 "/>
<path clip-path="url(#clip360)" d="M1799.44 148.965 Q1799.44 144.335 1797.51 141.789 Q1795.62 139.243 1792.17 139.243 Q1788.74 139.243 1786.82 141.789 Q1784.92 144.335 1784.92 148.965 Q1784.92 153.571 1786.82 156.118 Q1788.74 158.664 1792.17 158.664 Q1795.62 158.664 1797.51 156.118 Q1799.44 153.571 1799.44 148.965 M1803.7 159.011 Q1803.7 165.631 1800.76 168.849 Q1797.82 172.09 1791.75 172.09 Q1789.51 172.09 1787.51 171.742 Q1785.52 171.418 1783.65 170.724 L1783.65 166.58 Q1785.52 167.599 1787.35 168.085 Q1789.18 168.571 1791.08 168.571 Q1795.27 168.571 1797.35 166.372 Q1799.44 164.196 1799.44 159.775 L1799.44 157.668 Q1798.12 159.96 1796.06 161.094 Q1794 162.229 1791.13 162.229 Q1786.36 162.229 1783.44 158.594 Q1780.52 154.96 1780.52 148.965 Q1780.52 142.946 1783.44 139.312 Q1786.36 135.678 1791.13 135.678 Q1794 135.678 1796.06 136.812 Q1798.12 137.946 1799.44 140.238 L1799.44 136.303 L1803.7 136.303 L1803.7 159.011 Z" fill="#000000" fill-rule="nonzero" fill-opacity="1" /><path clip-path="url(#clip360)" d="M1827.49 140.284 Q1826.77 139.868 1825.92 139.682 Q1825.08 139.474 1824.07 139.474 Q1820.45 139.474 1818.51 141.835 Q1816.59 144.173 1816.59 148.571 L1816.59 162.229 L1812.31 162.229 L1812.31 136.303 L1816.59 136.303 L1816.59 140.331 Q1817.93 137.969 1820.08 136.835 Q1822.24 135.678 1825.32 135.678 Q1825.76 135.678 1826.29 135.747 Q1826.82 135.794 1827.47 135.909 L1827.49 140.284 Z" fill="#000000" fill-rule="nonzero" fill-opacity="1" /><path clip-path="url(#clip360)" d="M1840.96 139.289 Q1837.54 139.289 1835.55 141.974 Q1833.56 144.636 1833.56 149.289 Q1833.56 153.942 1835.52 156.627 Q1837.51 159.289 1840.96 159.289 Q1844.37 159.289 1846.36 156.604 Q1848.35 153.918 1848.35 149.289 Q1848.35 144.682 1846.36 141.997 Q1844.37 139.289 1840.96 139.289 M1840.96 135.678 Q1846.52 135.678 1849.69 139.289 Q1852.86 142.9 1852.86 149.289 Q1852.86 155.655 1849.69 159.289 Q1846.52 162.9 1840.96 162.9 Q1835.38 162.9 1832.21 159.289 Q1829.07 155.655 1829.07 149.289 Q1829.07 142.9 1832.21 139.289 Q1835.38 135.678 1840.96 135.678 Z" fill="#000000" fill-rule="nonzero" fill-opacity="1" /><path clip-path="url(#clip360)" d="M1859.48 151.997 L1859.48 136.303 L1863.74 136.303 L1863.74 151.835 Q1863.74 155.516 1865.18 157.368 Q1866.61 159.196 1869.48 159.196 Q1872.93 159.196 1874.92 156.997 Q1876.94 154.798 1876.94 151.002 L1876.94 136.303 L1881.19 136.303 L1881.19 162.229 L1876.94 162.229 L1876.94 158.247 Q1875.38 160.608 1873.32 161.766 Q1871.29 162.9 1868.58 162.9 Q1864.11 162.9 1861.8 160.122 Q1859.48 157.344 1859.48 151.997 M1870.2 135.678 L1870.2 135.678 Z" fill="#000000" fill-rule="nonzero" fill-opacity="1" /><path clip-path="url(#clip360)" d="M1911.52 146.581 L1911.52 162.229 L1907.26 162.229 L1907.26 146.719 Q1907.26 143.039 1905.82 141.21 Q1904.39 139.382 1901.52 139.382 Q1898.07 139.382 1896.08 141.581 Q1894.09 143.78 1894.09 147.576 L1894.09 162.229 L1889.81 162.229 L1889.81 136.303 L1894.09 136.303 L1894.09 140.331 Q1895.62 137.993 1897.68 136.835 Q1899.76 135.678 1902.47 135.678 Q1906.94 135.678 1909.23 138.456 Q1911.52 141.21 1911.52 146.581 Z" fill="#000000" fill-rule="nonzero" fill-opacity="1" /><path clip-path="url(#clip360)" d="M1937.07 140.238 L1937.07 126.21 L1941.33 126.21 L1941.33 162.229 L1937.07 162.229 L1937.07 158.34 Q1935.73 160.655 1933.67 161.789 Q1931.63 162.9 1928.76 162.9 Q1924.06 162.9 1921.1 159.15 Q1918.16 155.4 1918.16 149.289 Q1918.16 143.178 1921.1 139.428 Q1924.06 135.678 1928.76 135.678 Q1931.63 135.678 1933.67 136.812 Q1935.73 137.923 1937.07 140.238 M1922.56 149.289 Q1922.56 153.988 1924.48 156.673 Q1926.43 159.335 1929.81 159.335 Q1933.19 159.335 1935.13 156.673 Q1937.07 153.988 1937.07 149.289 Q1937.07 144.59 1935.13 141.928 Q1933.19 139.243 1929.81 139.243 Q1926.43 139.243 1924.48 141.928 Q1922.56 144.59 1922.56 149.289 Z" fill="#000000" fill-rule="nonzero" fill-opacity="1" /><path clip-path="url(#clip360)" d="M1981.7 137.067 L1981.7 141.094 Q1979.9 140.169 1977.95 139.706 Q1976.01 139.243 1973.93 139.243 Q1970.75 139.243 1969.16 140.215 Q1967.58 141.187 1967.58 143.131 Q1967.58 144.613 1968.72 145.469 Q1969.85 146.303 1973.28 147.067 L1974.74 147.391 Q1979.27 148.363 1981.17 150.145 Q1983.09 151.905 1983.09 155.076 Q1983.09 158.687 1980.22 160.793 Q1977.37 162.9 1972.37 162.9 Q1970.29 162.9 1968.02 162.483 Q1965.78 162.09 1963.28 161.28 L1963.28 156.881 Q1965.64 158.108 1967.93 158.733 Q1970.22 159.335 1972.47 159.335 Q1975.48 159.335 1977.1 158.317 Q1978.72 157.275 1978.72 155.4 Q1978.72 153.664 1977.54 152.738 Q1976.38 151.812 1972.42 150.956 L1970.94 150.608 Q1966.98 149.775 1965.22 148.062 Q1963.46 146.326 1963.46 143.317 Q1963.46 139.659 1966.06 137.669 Q1968.65 135.678 1973.42 135.678 Q1975.78 135.678 1977.86 136.025 Q1979.94 136.372 1981.7 137.067 Z" fill="#000000" fill-rule="nonzero" fill-opacity="1" /><path clip-path="url(#clip360)" d="M1994.09 128.942 L1994.09 136.303 L2002.86 136.303 L2002.86 139.613 L1994.09 139.613 L1994.09 153.687 Q1994.09 156.858 1994.94 157.761 Q1995.82 158.664 1998.49 158.664 L2002.86 158.664 L2002.86 162.229 L1998.49 162.229 Q1993.56 162.229 1991.68 160.4 Q1989.81 158.548 1989.81 153.687 L1989.81 139.613 L1986.68 139.613 L1986.68 136.303 L1989.81 136.303 L1989.81 128.942 L1994.09 128.942 Z" fill="#000000" fill-rule="nonzero" fill-opacity="1" /><path clip-path="url(#clip360)" d="M2020.25 149.196 Q2015.08 149.196 2013.09 150.377 Q2011.1 151.557 2011.1 154.405 Q2011.1 156.673 2012.58 158.016 Q2014.09 159.335 2016.66 159.335 Q2020.2 159.335 2022.33 156.835 Q2024.48 154.312 2024.48 150.145 L2024.48 149.196 L2020.25 149.196 M2028.74 147.437 L2028.74 162.229 L2024.48 162.229 L2024.48 158.293 Q2023.02 160.655 2020.85 161.789 Q2018.67 162.9 2015.52 162.9 Q2011.54 162.9 2009.18 160.678 Q2006.84 158.432 2006.84 154.682 Q2006.84 150.307 2009.76 148.085 Q2012.7 145.863 2018.51 145.863 L2024.48 145.863 L2024.48 145.446 Q2024.48 142.507 2022.54 140.909 Q2020.62 139.289 2017.12 139.289 Q2014.9 139.289 2012.79 139.821 Q2010.68 140.354 2008.74 141.419 L2008.74 137.483 Q2011.08 136.581 2013.28 136.141 Q2015.48 135.678 2017.56 135.678 Q2023.18 135.678 2025.96 138.594 Q2028.74 141.511 2028.74 147.437 Z" fill="#000000" fill-rule="nonzero" fill-opacity="1" /><path clip-path="url(#clip360)" d="M2041.73 128.942 L2041.73 136.303 L2050.5 136.303 L2050.5 139.613 L2041.73 139.613 L2041.73 153.687 Q2041.73 156.858 2042.58 157.761 Q2043.46 158.664 2046.12 158.664 L2050.5 158.664 L2050.5 162.229 L2046.12 162.229 Q2041.19 162.229 2039.32 160.4 Q2037.44 158.548 2037.44 153.687 L2037.44 139.613 L2034.32 139.613 L2034.32 136.303 L2037.44 136.303 L2037.44 128.942 L2041.73 128.942 Z" fill="#000000" fill-rule="nonzero" fill-opacity="1" /><path clip-path="url(#clip360)" d="M2078.28 148.201 L2078.28 150.284 L2058.69 150.284 Q2058.97 154.682 2061.33 156.997 Q2063.72 159.289 2067.95 159.289 Q2070.41 159.289 2072.7 158.687 Q2075.01 158.085 2077.28 156.881 L2077.28 160.909 Q2074.99 161.881 2072.58 162.391 Q2070.18 162.9 2067.7 162.9 Q2061.49 162.9 2057.86 159.289 Q2054.25 155.678 2054.25 149.52 Q2054.25 143.155 2057.68 139.428 Q2061.12 135.678 2066.96 135.678 Q2072.19 135.678 2075.22 139.057 Q2078.28 142.414 2078.28 148.201 M2074.02 146.951 Q2073.97 143.456 2072.05 141.372 Q2070.15 139.289 2067 139.289 Q2063.44 139.289 2061.29 141.303 Q2059.16 143.317 2058.83 146.974 L2074.02 146.951 Z" fill="#000000" fill-rule="nonzero" fill-opacity="1" /><path clip-path="url(#clip360)" d="M2122.51 148.201 L2122.51 150.284 L2102.93 150.284 Q2103.21 154.682 2105.57 156.997 Q2107.95 159.289 2112.19 159.289 Q2114.64 159.289 2116.93 158.687 Q2119.25 158.085 2121.52 156.881 L2121.52 160.909 Q2119.23 161.881 2116.82 162.391 Q2114.41 162.9 2111.93 162.9 Q2105.73 162.9 2102.1 159.289 Q2098.49 155.678 2098.49 149.52 Q2098.49 143.155 2101.91 139.428 Q2105.36 135.678 2111.19 135.678 Q2116.43 135.678 2119.46 139.057 Q2122.51 142.414 2122.51 148.201 M2118.25 146.951 Q2118.21 143.456 2116.29 141.372 Q2114.39 139.289 2111.24 139.289 Q2107.68 139.289 2105.52 141.303 Q2103.39 143.317 2103.07 146.974 L2118.25 146.951 Z" fill="#000000" fill-rule="nonzero" fill-opacity="1" /><path clip-path="url(#clip360)" d="M2151.05 146.581 L2151.05 162.229 L2146.8 162.229 L2146.8 146.719 Q2146.8 143.039 2145.36 141.21 Q2143.92 139.382 2141.05 139.382 Q2137.61 139.382 2135.61 141.581 Q2133.62 143.78 2133.62 147.576 L2133.62 162.229 L2129.34 162.229 L2129.34 136.303 L2133.62 136.303 L2133.62 140.331 Q2135.15 137.993 2137.21 136.835 Q2139.3 135.678 2142 135.678 Q2146.47 135.678 2148.76 138.456 Q2151.05 141.21 2151.05 146.581 Z" fill="#000000" fill-rule="nonzero" fill-opacity="1" /><path clip-path="url(#clip360)" d="M2181.73 148.201 L2181.73 150.284 L2162.14 150.284 Q2162.42 154.682 2164.78 156.997 Q2167.17 159.289 2171.4 159.289 Q2173.86 159.289 2176.15 158.687 Q2178.46 158.085 2180.73 156.881 L2180.73 160.909 Q2178.44 161.881 2176.03 162.391 Q2173.62 162.9 2171.15 162.9 Q2164.94 162.9 2161.31 159.289 Q2157.7 155.678 2157.7 149.52 Q2157.7 143.155 2161.12 139.428 Q2164.57 135.678 2170.41 135.678 Q2175.64 135.678 2178.67 139.057 Q2181.73 142.414 2181.73 148.201 M2177.47 146.951 Q2177.42 143.456 2175.5 141.372 Q2173.6 139.289 2170.45 139.289 Q2166.89 139.289 2164.73 141.303 Q2162.61 143.317 2162.28 146.974 L2177.47 146.951 Z" fill="#000000" fill-rule="nonzero" fill-opacity="1" /><path clip-path="url(#clip360)" d="M2203.74 140.284 Q2203.02 139.868 2202.17 139.682 Q2201.33 139.474 2200.31 139.474 Q2196.7 139.474 2194.76 141.835 Q2192.84 144.173 2192.84 148.571 L2192.84 162.229 L2188.55 162.229 L2188.55 136.303 L2192.84 136.303 L2192.84 140.331 Q2194.18 137.969 2196.33 136.835 Q2198.48 135.678 2201.56 135.678 Q2202 135.678 2202.54 135.747 Q2203.07 135.794 2203.72 135.909 L2203.74 140.284 Z" fill="#000000" fill-rule="nonzero" fill-opacity="1" /><path clip-path="url(#clip360)" d="M2224.43 148.965 Q2224.43 144.335 2222.51 141.789 Q2220.61 139.243 2217.17 139.243 Q2213.74 139.243 2211.82 141.789 Q2209.92 144.335 2209.92 148.965 Q2209.92 153.571 2211.82 156.118 Q2213.74 158.664 2217.17 158.664 Q2220.61 158.664 2222.51 156.118 Q2224.43 153.571 2224.43 148.965 M2228.69 159.011 Q2228.69 165.631 2225.75 168.849 Q2222.81 172.09 2216.75 172.09 Q2214.5 172.09 2212.51 171.742 Q2210.52 171.418 2208.65 170.724 L2208.65 166.58 Q2210.52 167.599 2212.35 168.085 Q2214.18 168.571 2216.08 168.571 Q2220.27 168.571 2222.35 166.372 Q2224.43 164.196 2224.43 159.775 L2224.43 157.668 Q2223.11 159.96 2221.05 161.094 Q2218.99 162.229 2216.12 162.229 Q2211.36 162.229 2208.44 158.594 Q2205.52 154.96 2205.52 148.965 Q2205.52 142.946 2208.44 139.312 Q2211.36 135.678 2216.12 135.678 Q2218.99 135.678 2221.05 136.812 Q2223.11 137.946 2224.43 140.238 L2224.43 136.303 L2228.69 136.303 L2228.69 159.011 Z" fill="#000000" fill-rule="nonzero" fill-opacity="1" /><path clip-path="url(#clip360)" d="M2248.25 164.636 Q2246.45 169.266 2244.73 170.678 Q2243.02 172.09 2240.15 172.09 L2236.75 172.09 L2236.75 168.525 L2239.25 168.525 Q2241.01 168.525 2241.98 167.692 Q2242.95 166.858 2244.13 163.756 L2244.9 161.812 L2234.41 136.303 L2238.92 136.303 L2247.03 156.581 L2255.13 136.303 L2259.64 136.303 L2248.25 164.636 Z" fill="#000000" fill-rule="nonzero" fill-opacity="1" /></svg>
