<?xml version="1.0" encoding="UTF-8"?>
<svg xmlns="http://www.w3.org/2000/svg" xmlns:xlink="http://www.w3.org/1999/xlink" width="85pt" height="82pt" viewBox="0 0 85 82" version="1.1">
<defs>
<clipPath id="clip1">
  <path d="M 0.078125 0.574219 L 49 0.574219 L 49 51 L 0.078125 51 Z M 0.078125 0.574219 "/>
</clipPath>
<clipPath id="clip2">
  <path d="M 0.078125 26 L 49 26 L 49 81.433594 L 0.078125 81.433594 Z M 0.078125 26 "/>
</clipPath>
<clipPath id="clip3">
  <path d="M 11 39 L 74 39 L 74 81.433594 L 11 81.433594 Z M 11 39 "/>
</clipPath>
<clipPath id="clip4">
  <path d="M 36 26 L 84.898438 26 L 84.898438 81.433594 L 36 81.433594 Z M 36 26 "/>
</clipPath>
<clipPath id="clip5">
  <path d="M 36 0.574219 L 84.898438 0.574219 L 84.898438 51 L 36 51 Z M 36 0.574219 "/>
</clipPath>
<clipPath id="clip6">
  <path d="M 40 0.574219 L 45 0.574219 L 45 5 L 40 5 Z M 40 0.574219 "/>
</clipPath>
<clipPath id="clip7">
  <path d="M 35 0.574219 L 50 0.574219 L 50 10 L 35 10 Z M 35 0.574219 "/>
</clipPath>
<clipPath id="clip8">
  <path d="M 0.078125 30 L 4 30 L 4 34 L 0.078125 34 Z M 0.078125 30 "/>
</clipPath>
<clipPath id="clip9">
  <path d="M 0.078125 24 L 10 24 L 10 40 L 0.078125 40 Z M 0.078125 24 "/>
</clipPath>
<clipPath id="clip10">
  <path d="M 15 77 L 20 77 L 20 81.433594 L 15 81.433594 Z M 15 77 "/>
</clipPath>
<clipPath id="clip11">
  <path d="M 10 72 L 25 72 L 25 81.433594 L 10 81.433594 Z M 10 72 "/>
</clipPath>
<clipPath id="clip12">
  <path d="M 65 77 L 70 77 L 70 81.433594 L 65 81.433594 Z M 65 77 "/>
</clipPath>
<clipPath id="clip13">
  <path d="M 60 72 L 75 72 L 75 81.433594 L 60 81.433594 Z M 60 72 "/>
</clipPath>
<clipPath id="clip14">
  <path d="M 81 30 L 84.898438 30 L 84.898438 34 L 81 34 Z M 81 30 "/>
</clipPath>
<clipPath id="clip15">
  <path d="M 75 24 L 84.898438 24 L 84.898438 40 L 75 40 Z M 75 24 "/>
</clipPath>
</defs>
<g id="surface111">
<g clip-path="url(#clip1)" clip-rule="nonzero">
<path style="fill:none;stroke-width:0.3985;stroke-linecap:butt;stroke-linejoin:miter;stroke:rgb(0%,0%,0%);stroke-opacity:1;stroke-miterlimit:10;" d="M -0.00171875 -0.00140625 L -0.00171875 21.260313 L -40.439219 13.139219 L -0.00171875 42.522031 L -20.220469 6.568906 " transform="matrix(1,0,0,-1,42.49,45.065)"/>
</g>
<g clip-path="url(#clip2)" clip-rule="nonzero">
<path style="fill:none;stroke-width:0.3985;stroke-linecap:butt;stroke-linejoin:miter;stroke:rgb(0%,0%,0%);stroke-opacity:1;stroke-miterlimit:10;" d="M -0.00171875 -0.00140625 L -20.220469 6.568906 L -24.993906 -34.399844 L -40.439219 13.139219 L -12.497813 -17.200625 " transform="matrix(1,0,0,-1,42.49,45.065)"/>
</g>
<g clip-path="url(#clip3)" clip-rule="nonzero">
<path style="fill:none;stroke-width:0.3985;stroke-linecap:butt;stroke-linejoin:miter;stroke:rgb(0%,0%,0%);stroke-opacity:1;stroke-miterlimit:10;" d="M -0.00171875 -0.00140625 L -12.497813 -17.200625 L 24.994375 -34.399844 L -24.993906 -34.399844 L 12.494375 -17.200625 " transform="matrix(1,0,0,-1,42.49,45.065)"/>
</g>
<g clip-path="url(#clip4)" clip-rule="nonzero">
<path style="fill:none;stroke-width:0.3985;stroke-linecap:butt;stroke-linejoin:miter;stroke:rgb(0%,0%,0%);stroke-opacity:1;stroke-miterlimit:10;" d="M -0.00171875 -0.00140625 L 12.494375 -17.200625 L 40.439687 13.139219 L 24.994375 -34.399844 L 20.220937 6.568906 " transform="matrix(1,0,0,-1,42.49,45.065)"/>
</g>
<g clip-path="url(#clip5)" clip-rule="nonzero">
<path style="fill:none;stroke-width:0.3985;stroke-linecap:butt;stroke-linejoin:miter;stroke:rgb(0%,0%,0%);stroke-opacity:1;stroke-miterlimit:10;" d="M -0.00171875 -0.00140625 L 20.220937 6.568906 L -0.00171875 42.522031 L 40.439687 13.139219 L -0.00171875 21.260313 " transform="matrix(1,0,0,-1,42.49,45.065)"/>
</g>
<path style="fill-rule:nonzero;fill:rgb(0%,0%,0%);fill-opacity:1;stroke-width:0.3985;stroke-linecap:butt;stroke-linejoin:miter;stroke:rgb(0%,0%,0%);stroke-opacity:1;stroke-miterlimit:10;" d="M 1.771719 21.260313 C 1.771719 22.236875 0.97875 23.029844 -0.00171875 23.029844 C -0.978281 23.029844 -1.77125 22.236875 -1.77125 21.260313 C -1.77125 20.279844 -0.978281 19.486875 -0.00171875 19.486875 C 0.97875 19.486875 1.771719 20.279844 1.771719 21.260313 Z M 1.771719 21.260313 " transform="matrix(1,0,0,-1,42.49,45.065)"/>
<g clip-path="url(#clip6)" clip-rule="nonzero">
<path style=" stroke:none;fill-rule:nonzero;fill:rgb(0%,0%,0%);fill-opacity:1;" d="M 44.261719 2.542969 C 44.261719 1.566406 43.46875 0.773438 42.488281 0.773438 C 41.511719 0.773438 40.71875 1.566406 40.71875 2.542969 C 40.71875 3.523438 41.511719 4.316406 42.488281 4.316406 C 43.46875 4.316406 44.261719 3.523438 44.261719 2.542969 Z M 44.261719 2.542969 "/>
</g>
<g clip-path="url(#clip7)" clip-rule="nonzero">
<path style="fill:none;stroke-width:0.3985;stroke-linecap:butt;stroke-linejoin:miter;stroke:rgb(0%,0%,0%);stroke-opacity:1;stroke-miterlimit:10;" d="M 1.771719 42.522031 C 1.771719 43.498594 0.97875 44.291563 -0.00171875 44.291563 C -0.978281 44.291563 -1.77125 43.498594 -1.77125 42.522031 C -1.77125 41.541563 -0.978281 40.748594 -0.00171875 40.748594 C 0.97875 40.748594 1.771719 41.541563 1.771719 42.522031 Z M 1.771719 42.522031 " transform="matrix(1,0,0,-1,42.49,45.065)"/>
</g>
<path style="fill-rule:nonzero;fill:rgb(0%,0%,0%);fill-opacity:1;stroke-width:0.3985;stroke-linecap:butt;stroke-linejoin:miter;stroke:rgb(0%,0%,0%);stroke-opacity:1;stroke-miterlimit:10;" d="M -18.447031 6.568906 C -18.447031 7.549375 -19.24 8.342344 -20.220469 8.342344 C -21.197031 8.342344 -21.99 7.549375 -21.99 6.568906 C -21.99 5.592344 -21.197031 4.799375 -20.220469 4.799375 C -19.24 4.799375 -18.447031 5.592344 -18.447031 6.568906 Z M -18.447031 6.568906 " transform="matrix(1,0,0,-1,42.49,45.065)"/>
<g clip-path="url(#clip8)" clip-rule="nonzero">
<path style=" stroke:none;fill-rule:nonzero;fill:rgb(0%,0%,0%);fill-opacity:1;" d="M 3.820312 31.925781 C 3.820312 30.945312 3.027344 30.152344 2.050781 30.152344 C 1.070312 30.152344 0.277344 30.945312 0.277344 31.925781 C 0.277344 32.902344 1.070312 33.695312 2.050781 33.695312 C 3.027344 33.695312 3.820312 32.902344 3.820312 31.925781 Z M 3.820312 31.925781 "/>
</g>
<g clip-path="url(#clip9)" clip-rule="nonzero">
<path style="fill:none;stroke-width:0.3985;stroke-linecap:butt;stroke-linejoin:miter;stroke:rgb(0%,0%,0%);stroke-opacity:1;stroke-miterlimit:10;" d="M -38.669688 13.139219 C -38.669688 14.119688 -39.462656 14.912656 -40.439219 14.912656 C -41.419688 14.912656 -42.212656 14.119688 -42.212656 13.139219 C -42.212656 12.162656 -41.419688 11.369688 -40.439219 11.369688 C -39.462656 11.369688 -38.669688 12.162656 -38.669688 13.139219 Z M -38.669688 13.139219 " transform="matrix(1,0,0,-1,42.49,45.065)"/>
</g>
<path style="fill-rule:nonzero;fill:rgb(0%,0%,0%);fill-opacity:1;stroke-width:0.3985;stroke-linecap:butt;stroke-linejoin:miter;stroke:rgb(0%,0%,0%);stroke-opacity:1;stroke-miterlimit:10;" d="M -10.724375 -17.200625 C -10.724375 -16.220156 -11.517344 -15.427187 -12.497813 -15.427187 C -13.474375 -15.427187 -14.267344 -16.220156 -14.267344 -17.200625 C -14.267344 -18.177187 -13.474375 -18.970156 -12.497813 -18.970156 C -11.517344 -18.970156 -10.724375 -18.177187 -10.724375 -17.200625 Z M -10.724375 -17.200625 " transform="matrix(1,0,0,-1,42.49,45.065)"/>
<g clip-path="url(#clip10)" clip-rule="nonzero">
<path style=" stroke:none;fill-rule:nonzero;fill:rgb(0%,0%,0%);fill-opacity:1;" d="M 19.269531 79.464844 C 19.269531 78.484375 18.476562 77.691406 17.496094 77.691406 C 16.519531 77.691406 15.726562 78.484375 15.726562 79.464844 C 15.726562 80.441406 16.519531 81.238281 17.496094 81.238281 C 18.476562 81.238281 19.269531 80.441406 19.269531 79.464844 Z M 19.269531 79.464844 "/>
</g>
<g clip-path="url(#clip11)" clip-rule="nonzero">
<path style="fill:none;stroke-width:0.3985;stroke-linecap:butt;stroke-linejoin:miter;stroke:rgb(0%,0%,0%);stroke-opacity:1;stroke-miterlimit:10;" d="M -23.220469 -34.399844 C -23.220469 -33.419375 -24.013438 -32.626406 -24.993906 -32.626406 C -25.970469 -32.626406 -26.763438 -33.419375 -26.763438 -34.399844 C -26.763438 -35.376406 -25.970469 -36.173281 -24.993906 -36.173281 C -24.013438 -36.173281 -23.220469 -35.376406 -23.220469 -34.399844 Z M -23.220469 -34.399844 " transform="matrix(1,0,0,-1,42.49,45.065)"/>
</g>
<path style="fill-rule:nonzero;fill:rgb(0%,0%,0%);fill-opacity:1;stroke-width:0.3985;stroke-linecap:butt;stroke-linejoin:miter;stroke:rgb(0%,0%,0%);stroke-opacity:1;stroke-miterlimit:10;" d="M 14.267812 -17.200625 C 14.267812 -16.220156 13.474844 -15.427187 12.494375 -15.427187 C 11.517812 -15.427187 10.724844 -16.220156 10.724844 -17.200625 C 10.724844 -18.177187 11.517812 -18.970156 12.494375 -18.970156 C 13.474844 -18.970156 14.267812 -18.177187 14.267812 -17.200625 Z M 14.267812 -17.200625 " transform="matrix(1,0,0,-1,42.49,45.065)"/>
<g clip-path="url(#clip12)" clip-rule="nonzero">
<path style=" stroke:none;fill-rule:nonzero;fill:rgb(0%,0%,0%);fill-opacity:1;" d="M 69.253906 79.464844 C 69.253906 78.484375 68.460938 77.691406 67.484375 77.691406 C 66.503906 77.691406 65.710938 78.484375 65.710938 79.464844 C 65.710938 80.441406 66.503906 81.238281 67.484375 81.238281 C 68.460938 81.238281 69.253906 80.441406 69.253906 79.464844 Z M 69.253906 79.464844 "/>
</g>
<g clip-path="url(#clip13)" clip-rule="nonzero">
<path style="fill:none;stroke-width:0.3985;stroke-linecap:butt;stroke-linejoin:miter;stroke:rgb(0%,0%,0%);stroke-opacity:1;stroke-miterlimit:10;" d="M 26.763906 -34.399844 C 26.763906 -33.419375 25.970937 -32.626406 24.994375 -32.626406 C 24.013906 -32.626406 23.220937 -33.419375 23.220937 -34.399844 C 23.220937 -35.376406 24.013906 -36.173281 24.994375 -36.173281 C 25.970937 -36.173281 26.763906 -35.376406 26.763906 -34.399844 Z M 26.763906 -34.399844 " transform="matrix(1,0,0,-1,42.49,45.065)"/>
</g>
<path style="fill-rule:nonzero;fill:rgb(0%,0%,0%);fill-opacity:1;stroke-width:0.3985;stroke-linecap:butt;stroke-linejoin:miter;stroke:rgb(0%,0%,0%);stroke-opacity:1;stroke-miterlimit:10;" d="M 21.990469 6.568906 C 21.990469 7.549375 21.1975 8.342344 20.220937 8.342344 C 19.240469 8.342344 18.4475 7.549375 18.4475 6.568906 C 18.4475 5.592344 19.240469 4.799375 20.220937 4.799375 C 21.1975 4.799375 21.990469 5.592344 21.990469 6.568906 Z M 21.990469 6.568906 " transform="matrix(1,0,0,-1,42.49,45.065)"/>
<g clip-path="url(#clip14)" clip-rule="nonzero">
<path style=" stroke:none;fill-rule:nonzero;fill:rgb(0%,0%,0%);fill-opacity:1;" d="M 84.699219 31.925781 C 84.699219 30.945312 83.90625 30.152344 82.929688 30.152344 C 81.949219 30.152344 81.15625 30.945312 81.15625 31.925781 C 81.15625 32.902344 81.949219 33.695312 82.929688 33.695312 C 83.90625 33.695312 84.699219 32.902344 84.699219 31.925781 Z M 84.699219 31.925781 "/>
</g>
<g clip-path="url(#clip15)" clip-rule="nonzero">
<path style="fill:none;stroke-width:0.3985;stroke-linecap:butt;stroke-linejoin:miter;stroke:rgb(0%,0%,0%);stroke-opacity:1;stroke-miterlimit:10;" d="M 42.209219 13.139219 C 42.209219 14.119688 41.41625 14.912656 40.439687 14.912656 C 39.459219 14.912656 38.66625 14.119688 38.66625 13.139219 C 38.66625 12.162656 39.459219 11.369688 40.439687 11.369688 C 41.41625 11.369688 42.209219 12.162656 42.209219 13.139219 Z M 42.209219 13.139219 " transform="matrix(1,0,0,-1,42.49,45.065)"/>
</g>
<path style="fill-rule:nonzero;fill:rgb(0%,0%,0%);fill-opacity:1;stroke-width:0.3985;stroke-linecap:butt;stroke-linejoin:miter;stroke:rgb(0%,0%,0%);stroke-opacity:1;stroke-miterlimit:10;" d="M 1.771719 -0.00140625 C 1.771719 0.979063 0.97875 1.772031 -0.00171875 1.772031 C -0.978281 1.772031 -1.77125 0.979063 -1.77125 -0.00140625 C -1.77125 -0.977969 -0.978281 -1.770937 -0.00171875 -1.770937 C 0.97875 -1.770937 1.771719 -0.977969 1.771719 -0.00140625 Z M 1.771719 -0.00140625 " transform="matrix(1,0,0,-1,42.49,45.065)"/>
</g>
</svg>
