<?xml version="1.0" encoding="UTF-8"?>
<svg xmlns="http://www.w3.org/2000/svg" xmlns:xlink="http://www.w3.org/1999/xlink" width="337.8pt" height="193.8pt" viewBox="0 0 337.8 193.8" version="1.1">
<defs>
<clipPath id="clip1">
  <path d="M 144 160 L 178 160 L 178 193.800781 L 144 193.800781 Z M 144 160 "/>
</clipPath>
<clipPath id="clip2">
  <path d="M 304 128 L 337.800781 128 L 337.800781 162 L 304 162 Z M 304 128 "/>
</clipPath>
<clipPath id="clip3">
  <path d="M 304 0 L 337.800781 0 L 337.800781 34 L 304 34 Z M 304 0 "/>
</clipPath>
</defs>
<g id="surface1">
<path style="fill-rule:evenodd;fill:rgb(39.199829%,58.399963%,92.89856%);fill-opacity:0.5;stroke-width:0.8;stroke-linecap:butt;stroke-linejoin:round;stroke:rgb(0%,0%,0%);stroke-opacity:1;stroke-miterlimit:10;" d="M 159.998437 384.001562 C 159.998437 392.8375 152.838281 400.001562 143.998437 400.001562 C 135.1625 400.001562 127.998437 392.8375 127.998437 384.001562 C 127.998437 375.161719 135.1625 368.001562 143.998437 368.001562 C 152.838281 368.001562 159.998437 375.161719 159.998437 384.001562 " transform="matrix(1,0,0,-1,-127.1,480.9)"/>
<path style="fill-rule:evenodd;fill:rgb(39.199829%,58.399963%,92.89856%);fill-opacity:0.5;stroke-width:0.8;stroke-linecap:butt;stroke-linejoin:round;stroke:rgb(0%,0%,0%);stroke-opacity:1;stroke-miterlimit:10;" d="M 223.998437 448.001562 C 223.998437 456.8375 216.838281 464.001562 207.998437 464.001562 C 199.1625 464.001562 191.998437 456.8375 191.998437 448.001562 C 191.998437 439.161719 199.1625 432.001562 207.998437 432.001562 C 216.838281 432.001562 223.998437 439.161719 223.998437 448.001562 " transform="matrix(1,0,0,-1,-127.1,480.9)"/>
<path style="fill-rule:evenodd;fill:rgb(39.199829%,58.399963%,92.89856%);fill-opacity:0.5;stroke-width:0.8;stroke-linecap:butt;stroke-linejoin:round;stroke:rgb(0%,0%,0%);stroke-opacity:1;stroke-miterlimit:10;" d="M 255.998437 368.001562 C 255.998437 376.8375 248.838281 384.001562 239.998437 384.001562 C 231.1625 384.001562 223.998437 376.8375 223.998437 368.001562 C 223.998437 359.161719 231.1625 352.001562 239.998437 352.001562 C 248.838281 352.001562 255.998437 359.161719 255.998437 368.001562 " transform="matrix(1,0,0,-1,-127.1,480.9)"/>
<path style="fill-rule:evenodd;fill:rgb(39.199829%,58.399963%,92.89856%);fill-opacity:0.5;stroke-width:0.8;stroke-linecap:butt;stroke-linejoin:round;stroke:rgb(0%,0%,0%);stroke-opacity:1;stroke-miterlimit:10;" d="M 335.998438 384.001562 C 335.998438 392.8375 328.838281 400.001562 319.998438 400.001562 C 311.1625 400.001562 303.998438 392.8375 303.998438 384.001562 C 303.998438 375.161719 311.1625 368.001562 319.998438 368.001562 C 328.838281 368.001562 335.998438 375.161719 335.998438 384.001562 " transform="matrix(1,0,0,-1,-127.1,480.9)"/>
<path style=" stroke:none;fill-rule:evenodd;fill:rgb(39.199829%,58.399963%,92.89856%);fill-opacity:0.5;" d="M 176.898438 176.898438 C 176.898438 168.0625 169.738281 160.898438 160.898438 160.898438 C 152.0625 160.898438 144.898438 168.0625 144.898438 176.898438 C 144.898438 185.738281 152.0625 192.898438 160.898438 192.898438 C 169.738281 192.898438 176.898438 185.738281 176.898438 176.898438 "/>
<g clip-path="url(#clip1)" clip-rule="nonzero">
<path style="fill:none;stroke-width:0.8;stroke-linecap:butt;stroke-linejoin:round;stroke:rgb(0%,0%,0%);stroke-opacity:1;stroke-miterlimit:10;" d="M 303.998438 304.001562 C 303.998438 312.8375 296.838281 320.001562 287.998438 320.001562 C 279.1625 320.001562 271.998438 312.8375 271.998438 304.001562 C 271.998438 295.161719 279.1625 288.001562 287.998438 288.001562 C 296.838281 288.001562 303.998438 295.161719 303.998438 304.001562 " transform="matrix(1,0,0,-1,-127.1,480.9)"/>
</g>
<path style="fill-rule:evenodd;fill:rgb(39.199829%,58.399963%,92.89856%);fill-opacity:0.5;stroke-width:0.8;stroke-linecap:butt;stroke-linejoin:round;stroke:rgb(0%,0%,0%);stroke-opacity:1;stroke-miterlimit:10;" d="M 431.998438 400.001562 C 431.998438 408.8375 424.838281 416.001562 415.998438 416.001562 C 407.1625 416.001562 399.998438 408.8375 399.998438 400.001562 C 399.998438 391.161719 407.1625 384.001562 415.998438 384.001562 C 424.838281 384.001562 431.998438 391.161719 431.998438 400.001562 " transform="matrix(1,0,0,-1,-127.1,480.9)"/>
<path style=" stroke:none;fill-rule:evenodd;fill:rgb(39.199829%,58.399963%,92.89856%);fill-opacity:0.5;" d="M 336.898438 144.898438 C 336.898438 136.0625 329.738281 128.898438 320.898438 128.898438 C 312.0625 128.898438 304.898438 136.0625 304.898438 144.898438 C 304.898438 153.738281 312.0625 160.898438 320.898438 160.898438 C 329.738281 160.898438 336.898438 153.738281 336.898438 144.898438 "/>
<g clip-path="url(#clip2)" clip-rule="nonzero">
<path style="fill:none;stroke-width:0.8;stroke-linecap:butt;stroke-linejoin:round;stroke:rgb(0%,0%,0%);stroke-opacity:1;stroke-miterlimit:10;" d="M 463.998438 336.001562 C 463.998438 344.8375 456.838281 352.001562 447.998438 352.001562 C 439.1625 352.001562 431.998438 344.8375 431.998438 336.001562 C 431.998438 327.161719 439.1625 320.001562 447.998438 320.001562 C 456.838281 320.001562 463.998438 327.161719 463.998438 336.001562 " transform="matrix(1,0,0,-1,-127.1,480.9)"/>
</g>
<path style=" stroke:none;fill-rule:evenodd;fill:rgb(39.199829%,58.399963%,92.89856%);fill-opacity:0.5;" d="M 336.898438 16.898438 C 336.898438 8.0625 329.738281 0.898438 320.898438 0.898438 C 312.0625 0.898438 304.898438 8.0625 304.898438 16.898438 C 304.898438 25.738281 312.0625 32.898438 320.898438 32.898438 C 329.738281 32.898438 336.898438 25.738281 336.898438 16.898438 "/>
<g clip-path="url(#clip3)" clip-rule="nonzero">
<path style="fill:none;stroke-width:0.8;stroke-linecap:butt;stroke-linejoin:round;stroke:rgb(0%,0%,0%);stroke-opacity:1;stroke-miterlimit:10;" d="M 463.998438 464.001562 C 463.998438 472.8375 456.838281 480.001562 447.998438 480.001562 C 439.1625 480.001562 431.998438 472.8375 431.998438 464.001562 C 431.998438 455.161719 439.1625 448.001562 447.998438 448.001562 C 456.838281 448.001562 463.998438 455.161719 463.998438 464.001562 " transform="matrix(1,0,0,-1,-127.1,480.9)"/>
</g>
<path style="fill:none;stroke-width:1.2;stroke-linecap:butt;stroke-linejoin:round;stroke:rgb(0%,0%,0%);stroke-opacity:1;stroke-miterlimit:10;" d="M 213.94375 433.142187 L 234.057031 382.857031 " transform="matrix(1,0,0,-1,-127.1,480.9)"/>
<path style="fill:none;stroke-width:1.2;stroke-linecap:butt;stroke-linejoin:round;stroke:rgb(0%,0%,0%);stroke-opacity:1;stroke-miterlimit:10;" d="M 159.783594 381.36875 L 224.217187 370.630469 " transform="matrix(1,0,0,-1,-127.1,480.9)"/>
<path style="fill:none;stroke-width:1.2;stroke-linecap:butt;stroke-linejoin:round;stroke:rgb(0%,0%,0%);stroke-opacity:1;stroke-miterlimit:10;" d="M 255.689844 371.138281 L 304.310938 380.860937 " transform="matrix(1,0,0,-1,-127.1,480.9)"/>
<path style="fill:none;stroke-width:1.2;stroke-linecap:butt;stroke-linejoin:round;stroke:rgb(0%,0%,0%);stroke-opacity:1;stroke-miterlimit:10;" d="M 293.94375 318.857031 C 307.353906 352.380469 314.057031 369.142187 314.057031 369.142187 " transform="matrix(1,0,0,-1,-127.1,480.9)"/>
<path style="fill:none;stroke-width:1.2;stroke-linecap:butt;stroke-linejoin:round;stroke:rgb(0%,0%,0%);stroke-opacity:1;stroke-miterlimit:10;" d="M 335.783594 386.630469 L 400.217188 397.36875 " transform="matrix(1,0,0,-1,-127.1,480.9)"/>
<path style="fill:none;stroke-width:1.2;stroke-linecap:butt;stroke-linejoin:round;stroke:rgb(0%,0%,0%);stroke-opacity:1;stroke-miterlimit:10;" d="M 440.846094 350.310156 L 423.154688 385.689062 " transform="matrix(1,0,0,-1,-127.1,480.9)"/>
<path style="fill:none;stroke-width:1.2;stroke-linecap:butt;stroke-linejoin:round;stroke:rgb(0%,0%,0%);stroke-opacity:1;stroke-miterlimit:10;" d="M 440.846094 449.689062 L 423.154688 414.310156 " transform="matrix(1,0,0,-1,-127.1,480.9)"/>
<path style="fill:none;stroke-width:1.2;stroke-linecap:butt;stroke-linejoin:round;stroke:rgb(0%,0%,0%);stroke-opacity:1;stroke-miterlimit:10;" d="M 221.857812 455.997656 C 271.838281 464.732031 303.498438 445.9625 316.846094 399.685156 " transform="matrix(1,0,0,-1,-127.1,480.9)"/>
<path style="fill:none;stroke-width:1.2;stroke-linecap:butt;stroke-linejoin:round;stroke:rgb(0%,0%,0%);stroke-opacity:1;stroke-miterlimit:10;" d="M 432.041406 465.142187 C 389.346094 464.380469 355.377344 441.4625 330.127344 396.384375 " transform="matrix(1,0,0,-1,-127.1,480.9)"/>
<path style="fill:none;stroke-width:1.2;stroke-linecap:butt;stroke-linejoin:round;stroke:rgb(0%,0%,0%);stroke-opacity:1;stroke-miterlimit:10;" d="M 301.7875 312.114844 C 325.197656 340.978125 359.5375 366.4625 404.810938 388.564062 " transform="matrix(1,0,0,-1,-127.1,480.9)"/>
</g>
</svg>
